M48
; DRILL file {KiCad (6.0.5)} date Fri Jul  8 15:35:59 2022
; FORMAT={-:-/ absolute / metric / decimal}
; #@! TF.CreationDate,2022-07-08T15:35:59+02:00
; #@! TF.GenerationSoftware,Kicad,Pcbnew,(6.0.5)
; #@! TF.FileFunction,MixedPlating,1,2
FMAT,2
METRIC
; #@! TA.AperFunction,Plated,PTH,ViaDrill
T1C0.400
; #@! TA.AperFunction,Plated,PTH,ComponentDrill
T2C1.000
; #@! TA.AperFunction,NonPlated,NPTH,ComponentDrill
T3C2.200
%
G90
G05
T1
X143.25Y-79.5
X144.25Y-80.5
X145.75Y-75.0
X146.25Y-78.25
X150.3Y-73.7
X151.8Y-73.1
X153.0Y-72.75
X155.5Y-72.5
X156.5Y-72.5
X156.873Y-78.105
X157.25Y-73.5
X157.85Y-78.105
X158.25Y-72.5
X161.0Y-79.25
T2
X139.7Y-56.825
X139.7Y-59.365
X139.7Y-61.905
X139.7Y-64.445
X139.7Y-66.985
X139.7Y-69.525
X139.7Y-72.065
X139.7Y-74.605
X145.625Y-50.25
X145.625Y-53.25
X146.45Y-58.25
X146.475Y-61.75
X146.475Y-65.25
X146.475Y-68.75
X148.165Y-50.25
X148.165Y-53.25
X148.99Y-58.25
X149.015Y-61.75
X149.015Y-65.25
X149.015Y-68.75
X150.705Y-50.25
X150.705Y-53.25
X151.53Y-58.25
X151.555Y-61.75
X151.555Y-65.25
X151.555Y-68.75
X153.245Y-50.25
X153.245Y-53.25
X154.07Y-58.25
X154.095Y-61.75
X154.095Y-65.25
X154.095Y-68.75
X155.785Y-50.25
X155.785Y-53.25
X156.67Y-58.25
X156.695Y-61.75
X156.695Y-65.25
X156.695Y-68.75
X158.325Y-50.25
X158.325Y-53.25
X159.21Y-58.25
X159.235Y-61.75
X159.235Y-65.25
X159.235Y-68.75
X160.865Y-50.25
X160.865Y-53.25
X161.75Y-58.25
X161.775Y-61.75
X161.775Y-65.25
X161.775Y-68.75
X163.405Y-50.25
X163.405Y-53.25
X168.75Y-54.25
X168.75Y-56.79
X168.75Y-59.33
X168.75Y-61.87
X168.75Y-64.41
X168.75Y-66.95
X168.75Y-69.49
X168.75Y-72.03
X168.75Y-74.57
T3
X139.75Y-50.25
X139.75Y-79.25
X168.75Y-50.25
X168.75Y-79.25
T0
M30
