%FSLAX45Y45*%
G04 Gerber Fmt 4.5, Leading zero omitted, Abs format (unit mm)*
G04 Created by KiCad (PCBNEW (6.0.5)) date 2022-07-08 15:36:00*
%MOMM*%
%LPD*%
G01*
G04 APERTURE LIST*
%TA.AperFunction,Profile*%
%ADD10C,0.100000*%
%TD*%
%ADD11C,0.200000*%
%ADD12C,0.040000*%
%ADD13C,0.100000*%
%ADD14C,0.220000*%
G04 APERTURE END LIST*
D10*
X17076580Y-5026000D02*
G75*
G03*
X16876579Y-4826000I-200000J0D01*
G01*
X13774579Y-5026000D02*
X13774579Y-7926000D01*
X13774576Y-7926000D02*
G75*
G03*
X13975000Y-8135000I211384J2110D01*
G01*
X17076579Y-5026000D02*
X17076579Y-7926000D01*
X13975000Y-8135000D02*
X16875000Y-8135000D01*
X16875000Y-8135002D02*
G75*
G03*
X17076579Y-7926000I-7560J209002D01*
G01*
X13976579Y-4826000D02*
X16876579Y-4826000D01*
X13976579Y-4825999D02*
G75*
G03*
X13774579Y-5026000I1J-202011D01*
G01*
D11*
D12*
X14305000Y-7930000D02*
X14345000Y-7970000D01*
X14345000Y-7930000D02*
X14305000Y-7970000D01*
X14405000Y-8030000D02*
X14445000Y-8070000D01*
X14445000Y-8030000D02*
X14405000Y-8070000D01*
X14555000Y-7480000D02*
X14595000Y-7520000D01*
X14595000Y-7480000D02*
X14555000Y-7520000D01*
X14605000Y-7805000D02*
X14645000Y-7845000D01*
X14645000Y-7805000D02*
X14605000Y-7845000D01*
X15010000Y-7350000D02*
X15050000Y-7390000D01*
X15050000Y-7350000D02*
X15010000Y-7390000D01*
X15160000Y-7290000D02*
X15200000Y-7330000D01*
X15200000Y-7290000D02*
X15160000Y-7330000D01*
X15280000Y-7255000D02*
X15320000Y-7295000D01*
X15320000Y-7255000D02*
X15280000Y-7295000D01*
X15530000Y-7230000D02*
X15570000Y-7270000D01*
X15570000Y-7230000D02*
X15530000Y-7270000D01*
X15630000Y-7230000D02*
X15670000Y-7270000D01*
X15670000Y-7230000D02*
X15630000Y-7270000D01*
X15667270Y-7790462D02*
X15707270Y-7830462D01*
X15707270Y-7790462D02*
X15667270Y-7830462D01*
X15705000Y-7330000D02*
X15745000Y-7370000D01*
X15745000Y-7330000D02*
X15705000Y-7370000D01*
X15765000Y-7790462D02*
X15805000Y-7830462D01*
X15805000Y-7790462D02*
X15765000Y-7830462D01*
X15805000Y-7230000D02*
X15845000Y-7270000D01*
X15845000Y-7230000D02*
X15805000Y-7270000D01*
X16080000Y-7905000D02*
X16120000Y-7945000D01*
X16120000Y-7905000D02*
X16080000Y-7945000D01*
D13*
X14020000Y-5682500D02*
G75*
G03*
X14020000Y-5682500I-50000J0D01*
G01*
X14020000Y-5936500D02*
G75*
G03*
X14020000Y-5936500I-50000J0D01*
G01*
X14020000Y-6190500D02*
G75*
G03*
X14020000Y-6190500I-50000J0D01*
G01*
X14020000Y-6444500D02*
G75*
G03*
X14020000Y-6444500I-50000J0D01*
G01*
X14020000Y-6698500D02*
G75*
G03*
X14020000Y-6698500I-50000J0D01*
G01*
X14020000Y-6952500D02*
G75*
G03*
X14020000Y-6952500I-50000J0D01*
G01*
X14020000Y-7206500D02*
G75*
G03*
X14020000Y-7206500I-50000J0D01*
G01*
X14020000Y-7460500D02*
G75*
G03*
X14020000Y-7460500I-50000J0D01*
G01*
X14612500Y-5025000D02*
G75*
G03*
X14612500Y-5025000I-50000J0D01*
G01*
X14612500Y-5325000D02*
G75*
G03*
X14612500Y-5325000I-50000J0D01*
G01*
X14695000Y-5825000D02*
G75*
G03*
X14695000Y-5825000I-50000J0D01*
G01*
X14697500Y-6175000D02*
G75*
G03*
X14697500Y-6175000I-50000J0D01*
G01*
X14697500Y-6525000D02*
G75*
G03*
X14697500Y-6525000I-50000J0D01*
G01*
X14697500Y-6875000D02*
G75*
G03*
X14697500Y-6875000I-50000J0D01*
G01*
X14866500Y-5025000D02*
G75*
G03*
X14866500Y-5025000I-50000J0D01*
G01*
X14866500Y-5325000D02*
G75*
G03*
X14866500Y-5325000I-50000J0D01*
G01*
X14949000Y-5825000D02*
G75*
G03*
X14949000Y-5825000I-50000J0D01*
G01*
X14951500Y-6175000D02*
G75*
G03*
X14951500Y-6175000I-50000J0D01*
G01*
X14951500Y-6525000D02*
G75*
G03*
X14951500Y-6525000I-50000J0D01*
G01*
X14951500Y-6875000D02*
G75*
G03*
X14951500Y-6875000I-50000J0D01*
G01*
X15120500Y-5025000D02*
G75*
G03*
X15120500Y-5025000I-50000J0D01*
G01*
X15120500Y-5325000D02*
G75*
G03*
X15120500Y-5325000I-50000J0D01*
G01*
X15203000Y-5825000D02*
G75*
G03*
X15203000Y-5825000I-50000J0D01*
G01*
X15205500Y-6175000D02*
G75*
G03*
X15205500Y-6175000I-50000J0D01*
G01*
X15205500Y-6525000D02*
G75*
G03*
X15205500Y-6525000I-50000J0D01*
G01*
X15205500Y-6875000D02*
G75*
G03*
X15205500Y-6875000I-50000J0D01*
G01*
X15374500Y-5025000D02*
G75*
G03*
X15374500Y-5025000I-50000J0D01*
G01*
X15374500Y-5325000D02*
G75*
G03*
X15374500Y-5325000I-50000J0D01*
G01*
X15457000Y-5825000D02*
G75*
G03*
X15457000Y-5825000I-50000J0D01*
G01*
X15459500Y-6175000D02*
G75*
G03*
X15459500Y-6175000I-50000J0D01*
G01*
X15459500Y-6525000D02*
G75*
G03*
X15459500Y-6525000I-50000J0D01*
G01*
X15459500Y-6875000D02*
G75*
G03*
X15459500Y-6875000I-50000J0D01*
G01*
X15628500Y-5025000D02*
G75*
G03*
X15628500Y-5025000I-50000J0D01*
G01*
X15628500Y-5325000D02*
G75*
G03*
X15628500Y-5325000I-50000J0D01*
G01*
X15717000Y-5825000D02*
G75*
G03*
X15717000Y-5825000I-50000J0D01*
G01*
X15719500Y-6175000D02*
G75*
G03*
X15719500Y-6175000I-50000J0D01*
G01*
X15719500Y-6525000D02*
G75*
G03*
X15719500Y-6525000I-50000J0D01*
G01*
X15719500Y-6875000D02*
G75*
G03*
X15719500Y-6875000I-50000J0D01*
G01*
X15882500Y-5025000D02*
G75*
G03*
X15882500Y-5025000I-50000J0D01*
G01*
X15882500Y-5325000D02*
G75*
G03*
X15882500Y-5325000I-50000J0D01*
G01*
X15971000Y-5825000D02*
G75*
G03*
X15971000Y-5825000I-50000J0D01*
G01*
X15973500Y-6175000D02*
G75*
G03*
X15973500Y-6175000I-50000J0D01*
G01*
X15973500Y-6525000D02*
G75*
G03*
X15973500Y-6525000I-50000J0D01*
G01*
X15973500Y-6875000D02*
G75*
G03*
X15973500Y-6875000I-50000J0D01*
G01*
X16136500Y-5025000D02*
G75*
G03*
X16136500Y-5025000I-50000J0D01*
G01*
X16136500Y-5325000D02*
G75*
G03*
X16136500Y-5325000I-50000J0D01*
G01*
X16225000Y-5825000D02*
G75*
G03*
X16225000Y-5825000I-50000J0D01*
G01*
X16227500Y-6175000D02*
G75*
G03*
X16227500Y-6175000I-50000J0D01*
G01*
X16227500Y-6525000D02*
G75*
G03*
X16227500Y-6525000I-50000J0D01*
G01*
X16227500Y-6875000D02*
G75*
G03*
X16227500Y-6875000I-50000J0D01*
G01*
X16390500Y-5025000D02*
G75*
G03*
X16390500Y-5025000I-50000J0D01*
G01*
X16390500Y-5325000D02*
G75*
G03*
X16390500Y-5325000I-50000J0D01*
G01*
X16925000Y-5425000D02*
G75*
G03*
X16925000Y-5425000I-50000J0D01*
G01*
X16925000Y-5679000D02*
G75*
G03*
X16925000Y-5679000I-50000J0D01*
G01*
X16925000Y-5933000D02*
G75*
G03*
X16925000Y-5933000I-50000J0D01*
G01*
X16925000Y-6187000D02*
G75*
G03*
X16925000Y-6187000I-50000J0D01*
G01*
X16925000Y-6441000D02*
G75*
G03*
X16925000Y-6441000I-50000J0D01*
G01*
X16925000Y-6695000D02*
G75*
G03*
X16925000Y-6695000I-50000J0D01*
G01*
X16925000Y-6949000D02*
G75*
G03*
X16925000Y-6949000I-50000J0D01*
G01*
X16925000Y-7203000D02*
G75*
G03*
X16925000Y-7203000I-50000J0D01*
G01*
X16925000Y-7457000D02*
G75*
G03*
X16925000Y-7457000I-50000J0D01*
G01*
D14*
X13975000Y-4915000D02*
X13975000Y-5135000D01*
X13865000Y-5025000D02*
X14085000Y-5025000D01*
X13975000Y-7815000D02*
X13975000Y-8035000D01*
X13865000Y-7925000D02*
X14085000Y-7925000D01*
X16875000Y-4915000D02*
X16875000Y-5135000D01*
X16765000Y-5025000D02*
X16985000Y-5025000D01*
X16875000Y-7815000D02*
X16875000Y-8035000D01*
X16765000Y-7925000D02*
X16985000Y-7925000D01*
D11*
X14027198Y-8450476D02*
X14027198Y-8250476D01*
X14074817Y-8250476D01*
X14103388Y-8260000D01*
X14122436Y-8279048D01*
X14131959Y-8298095D01*
X14141483Y-8336190D01*
X14141483Y-8364762D01*
X14131959Y-8402857D01*
X14122436Y-8421905D01*
X14103388Y-8440952D01*
X14074817Y-8450476D01*
X14027198Y-8450476D01*
X14227198Y-8450476D02*
X14227198Y-8317143D01*
X14227198Y-8355238D02*
X14236721Y-8336190D01*
X14246245Y-8326667D01*
X14265293Y-8317143D01*
X14284340Y-8317143D01*
X14351007Y-8450476D02*
X14351007Y-8317143D01*
X14351007Y-8250476D02*
X14341483Y-8260000D01*
X14351007Y-8269524D01*
X14360531Y-8260000D01*
X14351007Y-8250476D01*
X14351007Y-8269524D01*
X14474817Y-8450476D02*
X14455769Y-8440952D01*
X14446245Y-8421905D01*
X14446245Y-8250476D01*
X14579579Y-8450476D02*
X14560531Y-8440952D01*
X14551007Y-8421905D01*
X14551007Y-8250476D01*
X14808150Y-8450476D02*
X14808150Y-8250476D01*
X14874817Y-8393333D01*
X14941483Y-8250476D01*
X14941483Y-8450476D01*
X15122436Y-8450476D02*
X15122436Y-8345714D01*
X15112912Y-8326667D01*
X15093864Y-8317143D01*
X15055769Y-8317143D01*
X15036721Y-8326667D01*
X15122436Y-8440952D02*
X15103388Y-8450476D01*
X15055769Y-8450476D01*
X15036721Y-8440952D01*
X15027198Y-8421905D01*
X15027198Y-8402857D01*
X15036721Y-8383809D01*
X15055769Y-8374286D01*
X15103388Y-8374286D01*
X15122436Y-8364762D01*
X15217674Y-8317143D02*
X15217674Y-8517143D01*
X15217674Y-8326667D02*
X15236721Y-8317143D01*
X15274817Y-8317143D01*
X15293864Y-8326667D01*
X15303388Y-8336190D01*
X15312912Y-8355238D01*
X15312912Y-8412381D01*
X15303388Y-8431429D01*
X15293864Y-8440952D01*
X15274817Y-8450476D01*
X15236721Y-8450476D01*
X15217674Y-8440952D01*
X15398626Y-8431429D02*
X15408150Y-8440952D01*
X15398626Y-8450476D01*
X15389102Y-8440952D01*
X15398626Y-8431429D01*
X15398626Y-8450476D01*
X15398626Y-8326667D02*
X15408150Y-8336190D01*
X15398626Y-8345714D01*
X15389102Y-8336190D01*
X15398626Y-8326667D01*
X15398626Y-8345714D01*
D12*
X13729579Y-8760000D02*
X13769579Y-8800000D01*
X13769579Y-8760000D02*
X13729579Y-8800000D01*
D11*
X14065293Y-8670476D02*
X14084340Y-8670476D01*
X14103388Y-8680000D01*
X14112912Y-8689524D01*
X14122436Y-8708571D01*
X14131959Y-8746667D01*
X14131959Y-8794286D01*
X14122436Y-8832381D01*
X14112912Y-8851429D01*
X14103388Y-8860952D01*
X14084340Y-8870476D01*
X14065293Y-8870476D01*
X14046245Y-8860952D01*
X14036721Y-8851429D01*
X14027198Y-8832381D01*
X14017674Y-8794286D01*
X14017674Y-8746667D01*
X14027198Y-8708571D01*
X14036721Y-8689524D01*
X14046245Y-8680000D01*
X14065293Y-8670476D01*
X14217674Y-8851429D02*
X14227198Y-8860952D01*
X14217674Y-8870476D01*
X14208150Y-8860952D01*
X14217674Y-8851429D01*
X14217674Y-8870476D01*
X14398626Y-8737143D02*
X14398626Y-8870476D01*
X14351007Y-8660952D02*
X14303388Y-8803810D01*
X14427198Y-8803810D01*
X14541483Y-8670476D02*
X14560531Y-8670476D01*
X14579579Y-8680000D01*
X14589102Y-8689524D01*
X14598626Y-8708571D01*
X14608150Y-8746667D01*
X14608150Y-8794286D01*
X14598626Y-8832381D01*
X14589102Y-8851429D01*
X14579579Y-8860952D01*
X14560531Y-8870476D01*
X14541483Y-8870476D01*
X14522436Y-8860952D01*
X14512912Y-8851429D01*
X14503388Y-8832381D01*
X14493864Y-8794286D01*
X14493864Y-8746667D01*
X14503388Y-8708571D01*
X14512912Y-8689524D01*
X14522436Y-8680000D01*
X14541483Y-8670476D01*
X14731959Y-8670476D02*
X14751007Y-8670476D01*
X14770055Y-8680000D01*
X14779579Y-8689524D01*
X14789102Y-8708571D01*
X14798626Y-8746667D01*
X14798626Y-8794286D01*
X14789102Y-8832381D01*
X14779579Y-8851429D01*
X14770055Y-8860952D01*
X14751007Y-8870476D01*
X14731959Y-8870476D01*
X14712912Y-8860952D01*
X14703388Y-8851429D01*
X14693864Y-8832381D01*
X14684340Y-8794286D01*
X14684340Y-8746667D01*
X14693864Y-8708571D01*
X14703388Y-8689524D01*
X14712912Y-8680000D01*
X14731959Y-8670476D01*
X14884340Y-8870476D02*
X14884340Y-8737143D01*
X14884340Y-8756190D02*
X14893864Y-8746667D01*
X14912912Y-8737143D01*
X14941483Y-8737143D01*
X14960531Y-8746667D01*
X14970055Y-8765714D01*
X14970055Y-8870476D01*
X14970055Y-8765714D02*
X14979579Y-8746667D01*
X14998626Y-8737143D01*
X15027198Y-8737143D01*
X15046245Y-8746667D01*
X15055769Y-8765714D01*
X15055769Y-8870476D01*
X15151007Y-8870476D02*
X15151007Y-8737143D01*
X15151007Y-8756190D02*
X15160531Y-8746667D01*
X15179579Y-8737143D01*
X15208150Y-8737143D01*
X15227198Y-8746667D01*
X15236721Y-8765714D01*
X15236721Y-8870476D01*
X15236721Y-8765714D02*
X15246245Y-8746667D01*
X15265293Y-8737143D01*
X15293864Y-8737143D01*
X15312912Y-8746667D01*
X15322436Y-8765714D01*
X15322436Y-8870476D01*
X15712912Y-8660952D02*
X15541483Y-8918095D01*
X15970055Y-8670476D02*
X15989102Y-8670476D01*
X16008150Y-8680000D01*
X16017674Y-8689524D01*
X16027198Y-8708571D01*
X16036721Y-8746667D01*
X16036721Y-8794286D01*
X16027198Y-8832381D01*
X16017674Y-8851429D01*
X16008150Y-8860952D01*
X15989102Y-8870476D01*
X15970055Y-8870476D01*
X15951007Y-8860952D01*
X15941483Y-8851429D01*
X15931959Y-8832381D01*
X15922436Y-8794286D01*
X15922436Y-8746667D01*
X15931959Y-8708571D01*
X15941483Y-8689524D01*
X15951007Y-8680000D01*
X15970055Y-8670476D01*
X16122436Y-8851429D02*
X16131959Y-8860952D01*
X16122436Y-8870476D01*
X16112912Y-8860952D01*
X16122436Y-8851429D01*
X16122436Y-8870476D01*
X16255769Y-8670476D02*
X16274817Y-8670476D01*
X16293864Y-8680000D01*
X16303388Y-8689524D01*
X16312912Y-8708571D01*
X16322436Y-8746667D01*
X16322436Y-8794286D01*
X16312912Y-8832381D01*
X16303388Y-8851429D01*
X16293864Y-8860952D01*
X16274817Y-8870476D01*
X16255769Y-8870476D01*
X16236721Y-8860952D01*
X16227198Y-8851429D01*
X16217674Y-8832381D01*
X16208150Y-8794286D01*
X16208150Y-8746667D01*
X16217674Y-8708571D01*
X16227198Y-8689524D01*
X16236721Y-8680000D01*
X16255769Y-8670476D01*
X16512912Y-8870476D02*
X16398626Y-8870476D01*
X16455769Y-8870476D02*
X16455769Y-8670476D01*
X16436721Y-8699048D01*
X16417674Y-8718095D01*
X16398626Y-8727619D01*
X16693864Y-8670476D02*
X16598626Y-8670476D01*
X16589102Y-8765714D01*
X16598626Y-8756190D01*
X16617674Y-8746667D01*
X16665293Y-8746667D01*
X16684340Y-8756190D01*
X16693864Y-8765714D01*
X16703388Y-8784762D01*
X16703388Y-8832381D01*
X16693864Y-8851429D01*
X16684340Y-8860952D01*
X16665293Y-8870476D01*
X16617674Y-8870476D01*
X16598626Y-8860952D01*
X16589102Y-8851429D01*
X16770055Y-8670476D02*
X16903388Y-8670476D01*
X16817674Y-8870476D01*
X16970055Y-8670476D02*
X16970055Y-8708571D01*
X17046245Y-8670476D02*
X17046245Y-8708571D01*
X17341483Y-8946667D02*
X17331960Y-8937143D01*
X17312912Y-8908571D01*
X17303388Y-8889524D01*
X17293864Y-8860952D01*
X17284341Y-8813333D01*
X17284341Y-8775238D01*
X17293864Y-8727619D01*
X17303388Y-8699048D01*
X17312912Y-8680000D01*
X17331960Y-8651429D01*
X17341483Y-8641905D01*
X17522436Y-8870476D02*
X17408150Y-8870476D01*
X17465293Y-8870476D02*
X17465293Y-8670476D01*
X17446245Y-8699048D01*
X17427198Y-8718095D01*
X17408150Y-8727619D01*
X17693864Y-8737143D02*
X17693864Y-8870476D01*
X17646245Y-8660952D02*
X17598626Y-8803810D01*
X17722436Y-8803810D01*
X17951007Y-8870476D02*
X17951007Y-8670476D01*
X18036721Y-8870476D02*
X18036721Y-8765714D01*
X18027198Y-8746667D01*
X18008150Y-8737143D01*
X17979579Y-8737143D01*
X17960531Y-8746667D01*
X17951007Y-8756190D01*
X18160531Y-8870476D02*
X18141483Y-8860952D01*
X18131960Y-8851429D01*
X18122436Y-8832381D01*
X18122436Y-8775238D01*
X18131960Y-8756190D01*
X18141483Y-8746667D01*
X18160531Y-8737143D01*
X18189102Y-8737143D01*
X18208150Y-8746667D01*
X18217674Y-8756190D01*
X18227198Y-8775238D01*
X18227198Y-8832381D01*
X18217674Y-8851429D01*
X18208150Y-8860952D01*
X18189102Y-8870476D01*
X18160531Y-8870476D01*
X18341483Y-8870476D02*
X18322436Y-8860952D01*
X18312912Y-8841905D01*
X18312912Y-8670476D01*
X18493864Y-8860952D02*
X18474817Y-8870476D01*
X18436721Y-8870476D01*
X18417674Y-8860952D01*
X18408150Y-8841905D01*
X18408150Y-8765714D01*
X18417674Y-8746667D01*
X18436721Y-8737143D01*
X18474817Y-8737143D01*
X18493864Y-8746667D01*
X18503388Y-8765714D01*
X18503388Y-8784762D01*
X18408150Y-8803810D01*
X18579579Y-8860952D02*
X18598626Y-8870476D01*
X18636721Y-8870476D01*
X18655769Y-8860952D01*
X18665293Y-8841905D01*
X18665293Y-8832381D01*
X18655769Y-8813333D01*
X18636721Y-8803810D01*
X18608150Y-8803810D01*
X18589102Y-8794286D01*
X18579579Y-8775238D01*
X18579579Y-8765714D01*
X18589102Y-8746667D01*
X18608150Y-8737143D01*
X18636721Y-8737143D01*
X18655769Y-8746667D01*
X18731960Y-8946667D02*
X18741483Y-8937143D01*
X18760531Y-8908571D01*
X18770055Y-8889524D01*
X18779579Y-8860952D01*
X18789102Y-8813333D01*
X18789102Y-8775238D01*
X18779579Y-8727619D01*
X18770055Y-8699048D01*
X18760531Y-8680000D01*
X18741483Y-8651429D01*
X18731960Y-8641905D01*
D13*
X13769579Y-9044000D02*
G75*
G03*
X13769579Y-9044000I-50000J0D01*
G01*
D11*
X14131959Y-9134476D02*
X14017674Y-9134476D01*
X14074817Y-9134476D02*
X14074817Y-8934476D01*
X14055769Y-8963048D01*
X14036721Y-8982095D01*
X14017674Y-8991619D01*
X14217674Y-9115429D02*
X14227198Y-9124952D01*
X14217674Y-9134476D01*
X14208150Y-9124952D01*
X14217674Y-9115429D01*
X14217674Y-9134476D01*
X14351007Y-8934476D02*
X14370055Y-8934476D01*
X14389102Y-8944000D01*
X14398626Y-8953524D01*
X14408150Y-8972571D01*
X14417674Y-9010667D01*
X14417674Y-9058286D01*
X14408150Y-9096381D01*
X14398626Y-9115429D01*
X14389102Y-9124952D01*
X14370055Y-9134476D01*
X14351007Y-9134476D01*
X14331959Y-9124952D01*
X14322436Y-9115429D01*
X14312912Y-9096381D01*
X14303388Y-9058286D01*
X14303388Y-9010667D01*
X14312912Y-8972571D01*
X14322436Y-8953524D01*
X14331959Y-8944000D01*
X14351007Y-8934476D01*
X14541483Y-8934476D02*
X14560531Y-8934476D01*
X14579579Y-8944000D01*
X14589102Y-8953524D01*
X14598626Y-8972571D01*
X14608150Y-9010667D01*
X14608150Y-9058286D01*
X14598626Y-9096381D01*
X14589102Y-9115429D01*
X14579579Y-9124952D01*
X14560531Y-9134476D01*
X14541483Y-9134476D01*
X14522436Y-9124952D01*
X14512912Y-9115429D01*
X14503388Y-9096381D01*
X14493864Y-9058286D01*
X14493864Y-9010667D01*
X14503388Y-8972571D01*
X14512912Y-8953524D01*
X14522436Y-8944000D01*
X14541483Y-8934476D01*
X14731959Y-8934476D02*
X14751007Y-8934476D01*
X14770055Y-8944000D01*
X14779579Y-8953524D01*
X14789102Y-8972571D01*
X14798626Y-9010667D01*
X14798626Y-9058286D01*
X14789102Y-9096381D01*
X14779579Y-9115429D01*
X14770055Y-9124952D01*
X14751007Y-9134476D01*
X14731959Y-9134476D01*
X14712912Y-9124952D01*
X14703388Y-9115429D01*
X14693864Y-9096381D01*
X14684340Y-9058286D01*
X14684340Y-9010667D01*
X14693864Y-8972571D01*
X14703388Y-8953524D01*
X14712912Y-8944000D01*
X14731959Y-8934476D01*
X14884340Y-9134476D02*
X14884340Y-9001143D01*
X14884340Y-9020190D02*
X14893864Y-9010667D01*
X14912912Y-9001143D01*
X14941483Y-9001143D01*
X14960531Y-9010667D01*
X14970055Y-9029714D01*
X14970055Y-9134476D01*
X14970055Y-9029714D02*
X14979579Y-9010667D01*
X14998626Y-9001143D01*
X15027198Y-9001143D01*
X15046245Y-9010667D01*
X15055769Y-9029714D01*
X15055769Y-9134476D01*
X15151007Y-9134476D02*
X15151007Y-9001143D01*
X15151007Y-9020190D02*
X15160531Y-9010667D01*
X15179579Y-9001143D01*
X15208150Y-9001143D01*
X15227198Y-9010667D01*
X15236721Y-9029714D01*
X15236721Y-9134476D01*
X15236721Y-9029714D02*
X15246245Y-9010667D01*
X15265293Y-9001143D01*
X15293864Y-9001143D01*
X15312912Y-9010667D01*
X15322436Y-9029714D01*
X15322436Y-9134476D01*
X15712912Y-8924952D02*
X15541483Y-9182095D01*
X15970055Y-8934476D02*
X15989102Y-8934476D01*
X16008150Y-8944000D01*
X16017674Y-8953524D01*
X16027198Y-8972571D01*
X16036721Y-9010667D01*
X16036721Y-9058286D01*
X16027198Y-9096381D01*
X16017674Y-9115429D01*
X16008150Y-9124952D01*
X15989102Y-9134476D01*
X15970055Y-9134476D01*
X15951007Y-9124952D01*
X15941483Y-9115429D01*
X15931959Y-9096381D01*
X15922436Y-9058286D01*
X15922436Y-9010667D01*
X15931959Y-8972571D01*
X15941483Y-8953524D01*
X15951007Y-8944000D01*
X15970055Y-8934476D01*
X16122436Y-9115429D02*
X16131959Y-9124952D01*
X16122436Y-9134476D01*
X16112912Y-9124952D01*
X16122436Y-9115429D01*
X16122436Y-9134476D01*
X16255769Y-8934476D02*
X16274817Y-8934476D01*
X16293864Y-8944000D01*
X16303388Y-8953524D01*
X16312912Y-8972571D01*
X16322436Y-9010667D01*
X16322436Y-9058286D01*
X16312912Y-9096381D01*
X16303388Y-9115429D01*
X16293864Y-9124952D01*
X16274817Y-9134476D01*
X16255769Y-9134476D01*
X16236721Y-9124952D01*
X16227198Y-9115429D01*
X16217674Y-9096381D01*
X16208150Y-9058286D01*
X16208150Y-9010667D01*
X16217674Y-8972571D01*
X16227198Y-8953524D01*
X16236721Y-8944000D01*
X16255769Y-8934476D01*
X16389102Y-8934476D02*
X16512912Y-8934476D01*
X16446245Y-9010667D01*
X16474817Y-9010667D01*
X16493864Y-9020190D01*
X16503388Y-9029714D01*
X16512912Y-9048762D01*
X16512912Y-9096381D01*
X16503388Y-9115429D01*
X16493864Y-9124952D01*
X16474817Y-9134476D01*
X16417674Y-9134476D01*
X16398626Y-9124952D01*
X16389102Y-9115429D01*
X16608150Y-9134476D02*
X16646245Y-9134476D01*
X16665293Y-9124952D01*
X16674817Y-9115429D01*
X16693864Y-9086857D01*
X16703388Y-9048762D01*
X16703388Y-8972571D01*
X16693864Y-8953524D01*
X16684340Y-8944000D01*
X16665293Y-8934476D01*
X16627198Y-8934476D01*
X16608150Y-8944000D01*
X16598626Y-8953524D01*
X16589102Y-8972571D01*
X16589102Y-9020190D01*
X16598626Y-9039238D01*
X16608150Y-9048762D01*
X16627198Y-9058286D01*
X16665293Y-9058286D01*
X16684340Y-9048762D01*
X16693864Y-9039238D01*
X16703388Y-9020190D01*
X16874817Y-9001143D02*
X16874817Y-9134476D01*
X16827198Y-8924952D02*
X16779579Y-9067810D01*
X16903388Y-9067810D01*
X16970055Y-8934476D02*
X16970055Y-8972571D01*
X17046245Y-8934476D02*
X17046245Y-8972571D01*
X17341483Y-9210667D02*
X17331960Y-9201143D01*
X17312912Y-9172571D01*
X17303388Y-9153524D01*
X17293864Y-9124952D01*
X17284341Y-9077333D01*
X17284341Y-9039238D01*
X17293864Y-8991619D01*
X17303388Y-8963048D01*
X17312912Y-8944000D01*
X17331960Y-8915429D01*
X17341483Y-8905905D01*
X17503388Y-8934476D02*
X17465293Y-8934476D01*
X17446245Y-8944000D01*
X17436721Y-8953524D01*
X17417674Y-8982095D01*
X17408150Y-9020190D01*
X17408150Y-9096381D01*
X17417674Y-9115429D01*
X17427198Y-9124952D01*
X17446245Y-9134476D01*
X17484341Y-9134476D01*
X17503388Y-9124952D01*
X17512912Y-9115429D01*
X17522436Y-9096381D01*
X17522436Y-9048762D01*
X17512912Y-9029714D01*
X17503388Y-9020190D01*
X17484341Y-9010667D01*
X17446245Y-9010667D01*
X17427198Y-9020190D01*
X17417674Y-9029714D01*
X17408150Y-9048762D01*
X17712912Y-9134476D02*
X17598626Y-9134476D01*
X17655769Y-9134476D02*
X17655769Y-8934476D01*
X17636721Y-8963048D01*
X17617674Y-8982095D01*
X17598626Y-8991619D01*
X17951007Y-9134476D02*
X17951007Y-8934476D01*
X18036721Y-9134476D02*
X18036721Y-9029714D01*
X18027198Y-9010667D01*
X18008150Y-9001143D01*
X17979579Y-9001143D01*
X17960531Y-9010667D01*
X17951007Y-9020190D01*
X18160531Y-9134476D02*
X18141483Y-9124952D01*
X18131960Y-9115429D01*
X18122436Y-9096381D01*
X18122436Y-9039238D01*
X18131960Y-9020190D01*
X18141483Y-9010667D01*
X18160531Y-9001143D01*
X18189102Y-9001143D01*
X18208150Y-9010667D01*
X18217674Y-9020190D01*
X18227198Y-9039238D01*
X18227198Y-9096381D01*
X18217674Y-9115429D01*
X18208150Y-9124952D01*
X18189102Y-9134476D01*
X18160531Y-9134476D01*
X18341483Y-9134476D02*
X18322436Y-9124952D01*
X18312912Y-9105905D01*
X18312912Y-8934476D01*
X18493864Y-9124952D02*
X18474817Y-9134476D01*
X18436721Y-9134476D01*
X18417674Y-9124952D01*
X18408150Y-9105905D01*
X18408150Y-9029714D01*
X18417674Y-9010667D01*
X18436721Y-9001143D01*
X18474817Y-9001143D01*
X18493864Y-9010667D01*
X18503388Y-9029714D01*
X18503388Y-9048762D01*
X18408150Y-9067810D01*
X18579579Y-9124952D02*
X18598626Y-9134476D01*
X18636721Y-9134476D01*
X18655769Y-9124952D01*
X18665293Y-9105905D01*
X18665293Y-9096381D01*
X18655769Y-9077333D01*
X18636721Y-9067810D01*
X18608150Y-9067810D01*
X18589102Y-9058286D01*
X18579579Y-9039238D01*
X18579579Y-9029714D01*
X18589102Y-9010667D01*
X18608150Y-9001143D01*
X18636721Y-9001143D01*
X18655769Y-9010667D01*
X18731960Y-9210667D02*
X18741483Y-9201143D01*
X18760531Y-9172571D01*
X18770055Y-9153524D01*
X18779579Y-9124952D01*
X18789102Y-9077333D01*
X18789102Y-9039238D01*
X18779579Y-8991619D01*
X18770055Y-8963048D01*
X18760531Y-8944000D01*
X18741483Y-8915429D01*
X18731960Y-8905905D01*
X13669579Y-9208000D02*
X13669579Y-9408000D01*
X13569579Y-9308000D02*
X13769579Y-9308000D01*
X14017674Y-9217524D02*
X14027198Y-9208000D01*
X14046245Y-9198476D01*
X14093864Y-9198476D01*
X14112912Y-9208000D01*
X14122436Y-9217524D01*
X14131959Y-9236571D01*
X14131959Y-9255619D01*
X14122436Y-9284190D01*
X14008150Y-9398476D01*
X14131959Y-9398476D01*
X14217674Y-9379429D02*
X14227198Y-9388952D01*
X14217674Y-9398476D01*
X14208150Y-9388952D01*
X14217674Y-9379429D01*
X14217674Y-9398476D01*
X14303388Y-9217524D02*
X14312912Y-9208000D01*
X14331959Y-9198476D01*
X14379579Y-9198476D01*
X14398626Y-9208000D01*
X14408150Y-9217524D01*
X14417674Y-9236571D01*
X14417674Y-9255619D01*
X14408150Y-9284190D01*
X14293864Y-9398476D01*
X14417674Y-9398476D01*
X14541483Y-9198476D02*
X14560531Y-9198476D01*
X14579579Y-9208000D01*
X14589102Y-9217524D01*
X14598626Y-9236571D01*
X14608150Y-9274667D01*
X14608150Y-9322286D01*
X14598626Y-9360381D01*
X14589102Y-9379429D01*
X14579579Y-9388952D01*
X14560531Y-9398476D01*
X14541483Y-9398476D01*
X14522436Y-9388952D01*
X14512912Y-9379429D01*
X14503388Y-9360381D01*
X14493864Y-9322286D01*
X14493864Y-9274667D01*
X14503388Y-9236571D01*
X14512912Y-9217524D01*
X14522436Y-9208000D01*
X14541483Y-9198476D01*
X14731959Y-9198476D02*
X14751007Y-9198476D01*
X14770055Y-9208000D01*
X14779579Y-9217524D01*
X14789102Y-9236571D01*
X14798626Y-9274667D01*
X14798626Y-9322286D01*
X14789102Y-9360381D01*
X14779579Y-9379429D01*
X14770055Y-9388952D01*
X14751007Y-9398476D01*
X14731959Y-9398476D01*
X14712912Y-9388952D01*
X14703388Y-9379429D01*
X14693864Y-9360381D01*
X14684340Y-9322286D01*
X14684340Y-9274667D01*
X14693864Y-9236571D01*
X14703388Y-9217524D01*
X14712912Y-9208000D01*
X14731959Y-9198476D01*
X14884340Y-9398476D02*
X14884340Y-9265143D01*
X14884340Y-9284190D02*
X14893864Y-9274667D01*
X14912912Y-9265143D01*
X14941483Y-9265143D01*
X14960531Y-9274667D01*
X14970055Y-9293714D01*
X14970055Y-9398476D01*
X14970055Y-9293714D02*
X14979579Y-9274667D01*
X14998626Y-9265143D01*
X15027198Y-9265143D01*
X15046245Y-9274667D01*
X15055769Y-9293714D01*
X15055769Y-9398476D01*
X15151007Y-9398476D02*
X15151007Y-9265143D01*
X15151007Y-9284190D02*
X15160531Y-9274667D01*
X15179579Y-9265143D01*
X15208150Y-9265143D01*
X15227198Y-9274667D01*
X15236721Y-9293714D01*
X15236721Y-9398476D01*
X15236721Y-9293714D02*
X15246245Y-9274667D01*
X15265293Y-9265143D01*
X15293864Y-9265143D01*
X15312912Y-9274667D01*
X15322436Y-9293714D01*
X15322436Y-9398476D01*
X15712912Y-9188952D02*
X15541483Y-9446095D01*
X15970055Y-9198476D02*
X15989102Y-9198476D01*
X16008150Y-9208000D01*
X16017674Y-9217524D01*
X16027198Y-9236571D01*
X16036721Y-9274667D01*
X16036721Y-9322286D01*
X16027198Y-9360381D01*
X16017674Y-9379429D01*
X16008150Y-9388952D01*
X15989102Y-9398476D01*
X15970055Y-9398476D01*
X15951007Y-9388952D01*
X15941483Y-9379429D01*
X15931959Y-9360381D01*
X15922436Y-9322286D01*
X15922436Y-9274667D01*
X15931959Y-9236571D01*
X15941483Y-9217524D01*
X15951007Y-9208000D01*
X15970055Y-9198476D01*
X16122436Y-9379429D02*
X16131959Y-9388952D01*
X16122436Y-9398476D01*
X16112912Y-9388952D01*
X16122436Y-9379429D01*
X16122436Y-9398476D01*
X16255769Y-9198476D02*
X16274817Y-9198476D01*
X16293864Y-9208000D01*
X16303388Y-9217524D01*
X16312912Y-9236571D01*
X16322436Y-9274667D01*
X16322436Y-9322286D01*
X16312912Y-9360381D01*
X16303388Y-9379429D01*
X16293864Y-9388952D01*
X16274817Y-9398476D01*
X16255769Y-9398476D01*
X16236721Y-9388952D01*
X16227198Y-9379429D01*
X16217674Y-9360381D01*
X16208150Y-9322286D01*
X16208150Y-9274667D01*
X16217674Y-9236571D01*
X16227198Y-9217524D01*
X16236721Y-9208000D01*
X16255769Y-9198476D01*
X16436721Y-9284190D02*
X16417674Y-9274667D01*
X16408150Y-9265143D01*
X16398626Y-9246095D01*
X16398626Y-9236571D01*
X16408150Y-9217524D01*
X16417674Y-9208000D01*
X16436721Y-9198476D01*
X16474817Y-9198476D01*
X16493864Y-9208000D01*
X16503388Y-9217524D01*
X16512912Y-9236571D01*
X16512912Y-9246095D01*
X16503388Y-9265143D01*
X16493864Y-9274667D01*
X16474817Y-9284190D01*
X16436721Y-9284190D01*
X16417674Y-9293714D01*
X16408150Y-9303238D01*
X16398626Y-9322286D01*
X16398626Y-9360381D01*
X16408150Y-9379429D01*
X16417674Y-9388952D01*
X16436721Y-9398476D01*
X16474817Y-9398476D01*
X16493864Y-9388952D01*
X16503388Y-9379429D01*
X16512912Y-9360381D01*
X16512912Y-9322286D01*
X16503388Y-9303238D01*
X16493864Y-9293714D01*
X16474817Y-9284190D01*
X16684340Y-9198476D02*
X16646245Y-9198476D01*
X16627198Y-9208000D01*
X16617674Y-9217524D01*
X16598626Y-9246095D01*
X16589102Y-9284190D01*
X16589102Y-9360381D01*
X16598626Y-9379429D01*
X16608150Y-9388952D01*
X16627198Y-9398476D01*
X16665293Y-9398476D01*
X16684340Y-9388952D01*
X16693864Y-9379429D01*
X16703388Y-9360381D01*
X16703388Y-9312762D01*
X16693864Y-9293714D01*
X16684340Y-9284190D01*
X16665293Y-9274667D01*
X16627198Y-9274667D01*
X16608150Y-9284190D01*
X16598626Y-9293714D01*
X16589102Y-9312762D01*
X16874817Y-9198476D02*
X16836721Y-9198476D01*
X16817674Y-9208000D01*
X16808150Y-9217524D01*
X16789102Y-9246095D01*
X16779579Y-9284190D01*
X16779579Y-9360381D01*
X16789102Y-9379429D01*
X16798626Y-9388952D01*
X16817674Y-9398476D01*
X16855769Y-9398476D01*
X16874817Y-9388952D01*
X16884341Y-9379429D01*
X16893864Y-9360381D01*
X16893864Y-9312762D01*
X16884341Y-9293714D01*
X16874817Y-9284190D01*
X16855769Y-9274667D01*
X16817674Y-9274667D01*
X16798626Y-9284190D01*
X16789102Y-9293714D01*
X16779579Y-9312762D01*
X16970055Y-9198476D02*
X16970055Y-9236571D01*
X17046245Y-9198476D02*
X17046245Y-9236571D01*
X17341483Y-9474667D02*
X17331960Y-9465143D01*
X17312912Y-9436571D01*
X17303388Y-9417524D01*
X17293864Y-9388952D01*
X17284341Y-9341333D01*
X17284341Y-9303238D01*
X17293864Y-9255619D01*
X17303388Y-9227048D01*
X17312912Y-9208000D01*
X17331960Y-9179429D01*
X17341483Y-9169905D01*
X17503388Y-9265143D02*
X17503388Y-9398476D01*
X17455769Y-9188952D02*
X17408150Y-9331810D01*
X17531960Y-9331810D01*
X17760531Y-9398476D02*
X17760531Y-9198476D01*
X17846245Y-9398476D02*
X17846245Y-9293714D01*
X17836721Y-9274667D01*
X17817674Y-9265143D01*
X17789102Y-9265143D01*
X17770055Y-9274667D01*
X17760531Y-9284190D01*
X17970055Y-9398476D02*
X17951007Y-9388952D01*
X17941483Y-9379429D01*
X17931960Y-9360381D01*
X17931960Y-9303238D01*
X17941483Y-9284190D01*
X17951007Y-9274667D01*
X17970055Y-9265143D01*
X17998626Y-9265143D01*
X18017674Y-9274667D01*
X18027198Y-9284190D01*
X18036721Y-9303238D01*
X18036721Y-9360381D01*
X18027198Y-9379429D01*
X18017674Y-9388952D01*
X17998626Y-9398476D01*
X17970055Y-9398476D01*
X18151007Y-9398476D02*
X18131960Y-9388952D01*
X18122436Y-9369905D01*
X18122436Y-9198476D01*
X18303388Y-9388952D02*
X18284341Y-9398476D01*
X18246245Y-9398476D01*
X18227198Y-9388952D01*
X18217674Y-9369905D01*
X18217674Y-9293714D01*
X18227198Y-9274667D01*
X18246245Y-9265143D01*
X18284341Y-9265143D01*
X18303388Y-9274667D01*
X18312912Y-9293714D01*
X18312912Y-9312762D01*
X18217674Y-9331810D01*
X18389102Y-9388952D02*
X18408150Y-9398476D01*
X18446245Y-9398476D01*
X18465293Y-9388952D01*
X18474817Y-9369905D01*
X18474817Y-9360381D01*
X18465293Y-9341333D01*
X18446245Y-9331810D01*
X18417674Y-9331810D01*
X18398626Y-9322286D01*
X18389102Y-9303238D01*
X18389102Y-9293714D01*
X18398626Y-9274667D01*
X18417674Y-9265143D01*
X18446245Y-9265143D01*
X18465293Y-9274667D01*
X18541483Y-9474667D02*
X18551007Y-9465143D01*
X18570055Y-9436571D01*
X18579579Y-9417524D01*
X18589102Y-9388952D01*
X18598626Y-9341333D01*
X18598626Y-9303238D01*
X18589102Y-9255619D01*
X18579579Y-9227048D01*
X18570055Y-9208000D01*
X18551007Y-9179429D01*
X18541483Y-9169905D01*
X18903388Y-9474667D02*
X18893864Y-9465143D01*
X18874817Y-9436571D01*
X18865293Y-9417524D01*
X18855769Y-9388952D01*
X18846245Y-9341333D01*
X18846245Y-9303238D01*
X18855769Y-9255619D01*
X18865293Y-9227048D01*
X18874817Y-9208000D01*
X18893864Y-9179429D01*
X18903388Y-9169905D01*
X18979579Y-9265143D02*
X18979579Y-9398476D01*
X18979579Y-9284190D02*
X18989102Y-9274667D01*
X19008150Y-9265143D01*
X19036721Y-9265143D01*
X19055769Y-9274667D01*
X19065293Y-9293714D01*
X19065293Y-9398476D01*
X19189102Y-9398476D02*
X19170055Y-9388952D01*
X19160531Y-9379429D01*
X19151007Y-9360381D01*
X19151007Y-9303238D01*
X19160531Y-9284190D01*
X19170055Y-9274667D01*
X19189102Y-9265143D01*
X19217674Y-9265143D01*
X19236721Y-9274667D01*
X19246245Y-9284190D01*
X19255769Y-9303238D01*
X19255769Y-9360381D01*
X19246245Y-9379429D01*
X19236721Y-9388952D01*
X19217674Y-9398476D01*
X19189102Y-9398476D01*
X19312912Y-9265143D02*
X19389102Y-9265143D01*
X19341483Y-9198476D02*
X19341483Y-9369905D01*
X19351007Y-9388952D01*
X19370055Y-9398476D01*
X19389102Y-9398476D01*
X19608150Y-9265143D02*
X19608150Y-9465143D01*
X19608150Y-9274667D02*
X19627198Y-9265143D01*
X19665293Y-9265143D01*
X19684341Y-9274667D01*
X19693864Y-9284190D01*
X19703388Y-9303238D01*
X19703388Y-9360381D01*
X19693864Y-9379429D01*
X19684341Y-9388952D01*
X19665293Y-9398476D01*
X19627198Y-9398476D01*
X19608150Y-9388952D01*
X19817674Y-9398476D02*
X19798626Y-9388952D01*
X19789102Y-9369905D01*
X19789102Y-9198476D01*
X19979579Y-9398476D02*
X19979579Y-9293714D01*
X19970055Y-9274667D01*
X19951007Y-9265143D01*
X19912912Y-9265143D01*
X19893864Y-9274667D01*
X19979579Y-9388952D02*
X19960531Y-9398476D01*
X19912912Y-9398476D01*
X19893864Y-9388952D01*
X19884341Y-9369905D01*
X19884341Y-9350857D01*
X19893864Y-9331810D01*
X19912912Y-9322286D01*
X19960531Y-9322286D01*
X19979579Y-9312762D01*
X20046245Y-9265143D02*
X20122436Y-9265143D01*
X20074817Y-9198476D02*
X20074817Y-9369905D01*
X20084341Y-9388952D01*
X20103388Y-9398476D01*
X20122436Y-9398476D01*
X20265293Y-9388952D02*
X20246245Y-9398476D01*
X20208150Y-9398476D01*
X20189102Y-9388952D01*
X20179579Y-9369905D01*
X20179579Y-9293714D01*
X20189102Y-9274667D01*
X20208150Y-9265143D01*
X20246245Y-9265143D01*
X20265293Y-9274667D01*
X20274817Y-9293714D01*
X20274817Y-9312762D01*
X20179579Y-9331810D01*
X20446245Y-9398476D02*
X20446245Y-9198476D01*
X20446245Y-9388952D02*
X20427198Y-9398476D01*
X20389102Y-9398476D01*
X20370055Y-9388952D01*
X20360531Y-9379429D01*
X20351007Y-9360381D01*
X20351007Y-9303238D01*
X20360531Y-9284190D01*
X20370055Y-9274667D01*
X20389102Y-9265143D01*
X20427198Y-9265143D01*
X20446245Y-9274667D01*
X20522436Y-9474667D02*
X20531960Y-9465143D01*
X20551007Y-9436571D01*
X20560531Y-9417524D01*
X20570055Y-9388952D01*
X20579579Y-9341333D01*
X20579579Y-9303238D01*
X20570055Y-9255619D01*
X20560531Y-9227048D01*
X20551007Y-9208000D01*
X20531960Y-9179429D01*
X20522436Y-9169905D01*
M02*
