G04 #@! TF.GenerationSoftware,KiCad,Pcbnew,(6.0.5)*
G04 #@! TF.CreationDate,2022-07-08T15:35:48+02:00*
G04 #@! TF.ProjectId,MovuinoShieldPrototyping,4d6f7675-696e-46f5-9368-69656c645072,rev?*
G04 #@! TF.SameCoordinates,Original*
G04 #@! TF.FileFunction,Copper,L1,Top*
G04 #@! TF.FilePolarity,Positive*
%FSLAX46Y46*%
G04 Gerber Fmt 4.6, Leading zero omitted, Abs format (unit mm)*
G04 Created by KiCad (PCBNEW (6.0.5)) date 2022-07-08 15:35:48*
%MOMM*%
%LPD*%
G01*
G04 APERTURE LIST*
G04 #@! TA.AperFunction,ComponentPad*
%ADD10C,1.700000*%
G04 #@! TD*
G04 #@! TA.AperFunction,ComponentPad*
%ADD11O,1.700000X1.700000*%
G04 #@! TD*
G04 #@! TA.AperFunction,ViaPad*
%ADD12C,0.800000*%
G04 #@! TD*
G04 #@! TA.AperFunction,Conductor*
%ADD13C,0.200000*%
G04 #@! TD*
G04 APERTURE END LIST*
D10*
G04 #@! TO.P,REF\u002A\u002A,1*
G04 #@! TO.N,N/C*
X161775000Y-65250000D03*
D11*
G04 #@! TO.P,REF\u002A\u002A,2*
X159235000Y-65250000D03*
G04 #@! TO.P,REF\u002A\u002A,3*
X156695000Y-65250000D03*
G04 #@! TD*
D10*
G04 #@! TO.P,7,1*
G04 #@! TO.N,ADC1.5T*
X139700000Y-56825000D03*
D11*
G04 #@! TO.P,7,2*
G04 #@! TO.N,ADC1.4T*
X139700000Y-59365000D03*
G04 #@! TO.P,7,3*
G04 #@! TO.N,ADC1.7*
X139700000Y-61905000D03*
G04 #@! TO.P,7,4*
G04 #@! TO.N,ADC1.1*
X139700000Y-64445000D03*
G04 #@! TO.P,7,5*
G04 #@! TO.N,ADC1.6*
X139700000Y-66985000D03*
G04 #@! TO.P,7,6*
G04 #@! TO.N,ADC1.3*
X139700000Y-69525000D03*
G04 #@! TO.P,7,7*
G04 #@! TO.N,ADC1.2*
X139700000Y-72065000D03*
G04 #@! TO.P,7,8*
G04 #@! TO.N,+5V*
X139700000Y-74605000D03*
G04 #@! TD*
D10*
G04 #@! TO.P,REF\u002A\u002A,1*
G04 #@! TO.N,N/C*
X146475000Y-68750000D03*
D11*
G04 #@! TO.P,REF\u002A\u002A,2*
X149015000Y-68750000D03*
G04 #@! TO.P,REF\u002A\u002A,3*
X151555000Y-68750000D03*
G04 #@! TO.P,REF\u002A\u002A,4*
X154095000Y-68750000D03*
G04 #@! TD*
D10*
G04 #@! TO.P,REF\u002A\u002A,1*
G04 #@! TO.N,N/C*
X146475000Y-61750000D03*
D11*
G04 #@! TO.P,REF\u002A\u002A,2*
X149015000Y-61750000D03*
G04 #@! TO.P,REF\u002A\u002A,3*
X151555000Y-61750000D03*
G04 #@! TO.P,REF\u002A\u002A,4*
X154095000Y-61750000D03*
G04 #@! TD*
D10*
G04 #@! TO.P,REF\u002A\u002A,1*
G04 #@! TO.N,N/C*
X161750000Y-58250000D03*
D11*
G04 #@! TO.P,REF\u002A\u002A,2*
X159210000Y-58250000D03*
G04 #@! TO.P,REF\u002A\u002A,3*
X156670000Y-58250000D03*
G04 #@! TD*
D10*
G04 #@! TO.P,REF\u002A\u002A,1*
G04 #@! TO.N,SCL*
X168750000Y-54250000D03*
D11*
G04 #@! TO.P,REF\u002A\u002A,2*
G04 #@! TO.N,SCK*
X168750000Y-56790000D03*
G04 #@! TO.P,REF\u002A\u002A,3*
G04 #@! TO.N,MOSI*
X168750000Y-59330000D03*
G04 #@! TO.P,REF\u002A\u002A,4*
G04 #@! TO.N,MISO*
X168750000Y-61870000D03*
G04 #@! TO.P,REF\u002A\u002A,5*
G04 #@! TO.N,SDA*
X168750000Y-64410000D03*
G04 #@! TO.P,REF\u002A\u002A,6*
G04 #@! TO.N,TXD*
X168750000Y-66950000D03*
G04 #@! TO.P,REF\u002A\u002A,7*
G04 #@! TO.N,RXD*
X168750000Y-69490000D03*
G04 #@! TO.P,REF\u002A\u002A,8*
G04 #@! TO.N,PB*
X168750000Y-72030000D03*
G04 #@! TO.P,REF\u002A\u002A,9*
G04 #@! TO.N,RESET*
X168750000Y-74570000D03*
G04 #@! TD*
D10*
G04 #@! TO.P,REF\u002A\u002A,1*
G04 #@! TO.N,N/C*
X161775000Y-68750000D03*
D11*
G04 #@! TO.P,REF\u002A\u002A,2*
X159235000Y-68750000D03*
G04 #@! TO.P,REF\u002A\u002A,3*
X156695000Y-68750000D03*
G04 #@! TD*
D10*
G04 #@! TO.P,REF\u002A\u002A,1*
G04 #@! TO.N,N/C*
X161775000Y-61750000D03*
D11*
G04 #@! TO.P,REF\u002A\u002A,2*
X159235000Y-61750000D03*
G04 #@! TO.P,REF\u002A\u002A,3*
X156695000Y-61750000D03*
G04 #@! TD*
D10*
G04 #@! TO.P,REF\u002A\u002A,1*
G04 #@! TO.N,+3V3*
X145625000Y-53250000D03*
D11*
G04 #@! TO.P,REF\u002A\u002A,2*
X148165000Y-53250000D03*
G04 #@! TO.P,REF\u002A\u002A,3*
X150705000Y-53250000D03*
G04 #@! TO.P,REF\u002A\u002A,4*
X153245000Y-53250000D03*
G04 #@! TO.P,REF\u002A\u002A,5*
X155785000Y-53250000D03*
G04 #@! TO.P,REF\u002A\u002A,6*
X158325000Y-53250000D03*
G04 #@! TO.P,REF\u002A\u002A,7*
X160865000Y-53250000D03*
G04 #@! TO.P,REF\u002A\u002A,8*
X163405000Y-53250000D03*
G04 #@! TD*
D10*
G04 #@! TO.P,REF\u002A\u002A,1*
G04 #@! TO.N,GND*
X145625000Y-50250000D03*
D11*
G04 #@! TO.P,REF\u002A\u002A,2*
X148165000Y-50250000D03*
G04 #@! TO.P,REF\u002A\u002A,3*
X150705000Y-50250000D03*
G04 #@! TO.P,REF\u002A\u002A,4*
X153245000Y-50250000D03*
G04 #@! TO.P,REF\u002A\u002A,5*
X155785000Y-50250000D03*
G04 #@! TO.P,REF\u002A\u002A,6*
X158325000Y-50250000D03*
G04 #@! TO.P,REF\u002A\u002A,7*
X160865000Y-50250000D03*
G04 #@! TO.P,REF\u002A\u002A,8*
X163405000Y-50250000D03*
G04 #@! TD*
D10*
G04 #@! TO.P,REF\u002A\u002A,1*
G04 #@! TO.N,N/C*
X146450000Y-58250000D03*
D11*
G04 #@! TO.P,REF\u002A\u002A,2*
X148990000Y-58250000D03*
G04 #@! TO.P,REF\u002A\u002A,3*
X151530000Y-58250000D03*
G04 #@! TO.P,REF\u002A\u002A,4*
X154070000Y-58250000D03*
G04 #@! TD*
D10*
G04 #@! TO.P,REF\u002A\u002A,1*
G04 #@! TO.N,N/C*
X146475000Y-65250000D03*
D11*
G04 #@! TO.P,REF\u002A\u002A,2*
X149015000Y-65250000D03*
G04 #@! TO.P,REF\u002A\u002A,3*
X151555000Y-65250000D03*
G04 #@! TO.P,REF\u002A\u002A,4*
X154095000Y-65250000D03*
G04 #@! TD*
D12*
G04 #@! TO.N,GND*
X161000000Y-79250000D03*
G04 #@! TO.N,SCL*
X145750000Y-75000000D03*
X156872697Y-78104620D03*
G04 #@! TO.N,ADC1.2*
X150300000Y-73700000D03*
G04 #@! TO.N,ADC1.3*
X151800000Y-73100000D03*
G04 #@! TO.N,ADC1.6*
X153000000Y-72750000D03*
G04 #@! TO.N,PB*
X143250000Y-79500000D03*
G04 #@! TO.N,ADC1.1*
X155500000Y-72500000D03*
G04 #@! TO.N,RESET*
X144250000Y-80500000D03*
G04 #@! TO.N,ADC1.7*
X156500000Y-72500000D03*
G04 #@! TO.N,ADC1.4T*
X157250000Y-73500000D03*
G04 #@! TO.N,ADC1.5T*
X158250000Y-72500000D03*
G04 #@! TO.N,+5V*
X146250000Y-78250000D03*
G04 #@! TO.N,+3V3*
X157850000Y-78104620D03*
G04 #@! TD*
D13*
G04 #@! TO.N,GND*
X164650000Y-51495000D02*
X163405000Y-50250000D01*
X164650000Y-75600000D02*
X164650000Y-51495000D01*
X161000000Y-79250000D02*
X164650000Y-75600000D01*
G04 #@! TO.N,ADC1.4T*
X143250000Y-62790000D02*
X139750000Y-59290000D01*
X143250000Y-70500000D02*
X143250000Y-62790000D01*
X143750000Y-71000000D02*
X143250000Y-70500000D01*
X157550000Y-71300000D02*
X157250000Y-71000000D01*
X157250000Y-71000000D02*
X143750000Y-71000000D01*
X157250000Y-73500000D02*
X157550000Y-73200000D01*
X157550000Y-73200000D02*
X157550000Y-71300000D01*
G04 #@! TO.N,ADC1.6*
X152650000Y-72400000D02*
X153000000Y-72750000D01*
X141750000Y-72000000D02*
X142150000Y-72400000D01*
X142150000Y-72400000D02*
X152650000Y-72400000D01*
X141750000Y-68910000D02*
X141750000Y-72000000D01*
X139750000Y-66910000D02*
X141750000Y-68910000D01*
G04 #@! TO.N,SCL*
X156250000Y-75000000D02*
X145750000Y-75000000D01*
X156872697Y-75622697D02*
X156250000Y-75000000D01*
X156872697Y-78104620D02*
X156872697Y-75622697D01*
G04 #@! TO.N,+3V3*
X164000000Y-53845000D02*
X163405000Y-53250000D01*
X164000000Y-74500000D02*
X164000000Y-53845000D01*
X158204620Y-77750000D02*
X160750000Y-77750000D01*
X157850000Y-78104620D02*
X158204620Y-77750000D01*
X160750000Y-77750000D02*
X164000000Y-74500000D01*
G04 #@! TO.N,PB*
X167000000Y-75000000D02*
X167000000Y-73740000D01*
X167000000Y-73740000D02*
X168750000Y-71990000D01*
X147983160Y-80733160D02*
X161266840Y-80733160D01*
X147000000Y-79750000D02*
X147983160Y-80733160D01*
X161266840Y-80733160D02*
X167000000Y-75000000D01*
X143500000Y-79750000D02*
X147000000Y-79750000D01*
X143250000Y-79500000D02*
X143500000Y-79750000D01*
G04 #@! TO.N,*
X156695000Y-61750000D02*
X161775000Y-61750000D01*
X146475000Y-61750000D02*
X154095000Y-61750000D01*
X146475000Y-68750000D02*
X154095000Y-68750000D01*
X146450000Y-58250000D02*
X154070000Y-58250000D01*
X156695000Y-68750000D02*
X161775000Y-68750000D01*
X156695000Y-65250000D02*
X161775000Y-65250000D01*
X154095000Y-65250000D02*
X146475000Y-65250000D01*
X156670000Y-58250000D02*
X161750000Y-58250000D01*
G04 #@! TO.N,GND*
X145625000Y-50250000D02*
X163405000Y-50250000D01*
G04 #@! TO.N,ADC1.2*
X141260000Y-73500000D02*
X139750000Y-71990000D01*
X150300000Y-73700000D02*
X150100000Y-73500000D01*
X150100000Y-73500000D02*
X141260000Y-73500000D01*
G04 #@! TO.N,ADC1.3*
X151800000Y-73100000D02*
X151700000Y-73000000D01*
X141750000Y-73000000D02*
X141250000Y-72500000D01*
X141250000Y-72500000D02*
X141250000Y-70950000D01*
X141250000Y-70950000D02*
X139750000Y-69450000D01*
X151700000Y-73000000D02*
X141750000Y-73000000D01*
G04 #@! TO.N,ADC1.1*
X142200000Y-66800000D02*
X142200000Y-71400000D01*
X155000000Y-72000000D02*
X155500000Y-72500000D01*
X139750000Y-64370000D02*
X141880000Y-66500000D01*
X142800000Y-72000000D02*
X155000000Y-72000000D01*
X141900000Y-66500000D02*
X142200000Y-66800000D01*
X142200000Y-71400000D02*
X142800000Y-72000000D01*
X141880000Y-66500000D02*
X141900000Y-66500000D01*
G04 #@! TO.N,RESET*
X144250000Y-80500000D02*
X147000000Y-80500000D01*
X163839520Y-81110480D02*
X168750000Y-76200000D01*
X147000000Y-80500000D02*
X147610480Y-81110480D01*
X147610480Y-81110480D02*
X163839520Y-81110480D01*
X168750000Y-76200000D02*
X168750000Y-74530000D01*
G04 #@! TO.N,ADC1.7*
X143250000Y-71500000D02*
X156250000Y-71500000D01*
X139750000Y-61830000D02*
X142750000Y-64830000D01*
X156250000Y-71500000D02*
X156500000Y-71750000D01*
X142750000Y-71000000D02*
X143250000Y-71500000D01*
X156500000Y-71750000D02*
X156500000Y-72500000D01*
X142750000Y-64830000D02*
X142750000Y-71000000D01*
G04 #@! TO.N,ADC1.5T*
X158000000Y-70500000D02*
X158250000Y-70750000D01*
X158250000Y-70750000D02*
X158250000Y-72500000D01*
X143750000Y-70000000D02*
X143750000Y-60750000D01*
X144250000Y-70500000D02*
X158000000Y-70500000D01*
X143750000Y-60750000D02*
X139750000Y-56750000D01*
X143750000Y-70000000D02*
X144250000Y-70500000D01*
G04 #@! TO.N,+5V*
X139750000Y-74530000D02*
X143470000Y-78250000D01*
X143470000Y-78250000D02*
X146250000Y-78250000D01*
G04 #@! TO.N,+3V3*
X160865000Y-53250000D02*
X163405000Y-53250000D01*
X155785000Y-53250000D02*
X158325000Y-53250000D01*
X153245000Y-53250000D02*
X155785000Y-53250000D01*
X148165000Y-53250000D02*
X150705000Y-53250000D01*
X158325000Y-53250000D02*
X160865000Y-53250000D01*
X145625000Y-53250000D02*
X148165000Y-53250000D01*
X150705000Y-53250000D02*
X153245000Y-53250000D01*
G04 #@! TD*
M02*
