G04 #@! TF.GenerationSoftware,KiCad,Pcbnew,(6.0.5)*
G04 #@! TF.CreationDate,2022-07-08T11:37:32+02:00*
G04 #@! TF.ProjectId,MovuinoProtoShield_v2.0,4d6f7675-696e-46f5-9072-6f746f536869,rev?*
G04 #@! TF.SameCoordinates,Original*
G04 #@! TF.FileFunction,Soldermask,Top*
G04 #@! TF.FilePolarity,Negative*
%FSLAX46Y46*%
G04 Gerber Fmt 4.6, Leading zero omitted, Abs format (unit mm)*
G04 Created by KiCad (PCBNEW (6.0.5)) date 2022-07-08 11:37:32*
%MOMM*%
%LPD*%
G01*
G04 APERTURE LIST*
%ADD10C,1.700000*%
%ADD11O,1.700000X1.700000*%
%ADD12C,2.200000*%
G04 APERTURE END LIST*
D10*
G04 #@! TO.C,REF\u002A\u002A*
X157700000Y-38000000D03*
D11*
X157700000Y-40540000D03*
X157700000Y-43080000D03*
X157700000Y-45620000D03*
X157700000Y-48160000D03*
X157700000Y-50700000D03*
X157700000Y-53240000D03*
G04 #@! TD*
D10*
G04 #@! TO.C,REF\u002A\u002A*
X135450000Y-43000000D03*
D11*
X137990000Y-43000000D03*
X140530000Y-43000000D03*
X143070000Y-43000000D03*
X145610000Y-43000000D03*
X148150000Y-43000000D03*
X150690000Y-43000000D03*
G04 #@! TD*
D12*
G04 #@! TO.C,*
X128520000Y-31104214D03*
G04 #@! TD*
G04 #@! TO.C,*
X157520000Y-31104214D03*
G04 #@! TD*
D10*
G04 #@! TO.C,REF\u002A\u002A*
X135475000Y-40500000D03*
D11*
X138015000Y-40500000D03*
X140555000Y-40500000D03*
X143095000Y-40500000D03*
X145635000Y-40500000D03*
X148175000Y-40500000D03*
X150715000Y-40500000D03*
G04 #@! TD*
D12*
G04 #@! TO.C,*
X128520000Y-60104214D03*
G04 #@! TD*
D10*
G04 #@! TO.C,REF\u002A\u002A*
X135450000Y-53100000D03*
D11*
X137990000Y-53100000D03*
X140530000Y-53100000D03*
X143070000Y-53100000D03*
X145610000Y-53100000D03*
X148150000Y-53100000D03*
X150690000Y-53100000D03*
G04 #@! TD*
D12*
G04 #@! TO.C,*
X157520000Y-60104214D03*
G04 #@! TD*
D10*
G04 #@! TO.C,REF\u002A\u002A*
X155100000Y-38000000D03*
D11*
X155100000Y-40540000D03*
X155100000Y-43080000D03*
X155100000Y-45620000D03*
X155100000Y-48160000D03*
X155100000Y-50700000D03*
X155100000Y-53240000D03*
G04 #@! TD*
D10*
G04 #@! TO.C,REF\u002A\u002A*
X128700000Y-35350000D03*
D11*
X128700000Y-37890000D03*
X128700000Y-40430000D03*
X128700000Y-42970000D03*
X128700000Y-45510000D03*
X128700000Y-48050000D03*
X128700000Y-50590000D03*
X128700000Y-53130000D03*
X128700000Y-55670000D03*
G04 #@! TD*
D10*
G04 #@! TO.C,REF\u002A\u002A*
X135450000Y-45500000D03*
D11*
X137990000Y-45500000D03*
X140530000Y-45500000D03*
X143070000Y-45500000D03*
X145610000Y-45500000D03*
X148150000Y-45500000D03*
X150690000Y-45500000D03*
G04 #@! TD*
D10*
G04 #@! TO.C,REF\u002A\u002A*
X135450000Y-50600000D03*
D11*
X137990000Y-50600000D03*
X140530000Y-50600000D03*
X143070000Y-50600000D03*
X145610000Y-50600000D03*
X148150000Y-50600000D03*
X150690000Y-50600000D03*
G04 #@! TD*
D10*
G04 #@! TO.C,REF\u002A\u002A*
X135450000Y-48000000D03*
D11*
X137990000Y-48000000D03*
X140530000Y-48000000D03*
X143070000Y-48000000D03*
X145610000Y-48000000D03*
X148150000Y-48000000D03*
X150690000Y-48000000D03*
G04 #@! TD*
D10*
G04 #@! TO.C,REF\u002A\u002A*
X132900000Y-31300000D03*
D11*
X135440000Y-31300000D03*
X137980000Y-31300000D03*
X140520000Y-31300000D03*
X143060000Y-31300000D03*
X145600000Y-31300000D03*
X148140000Y-31300000D03*
X150680000Y-31300000D03*
X153220000Y-31300000D03*
G04 #@! TD*
D10*
G04 #@! TO.C,REF\u002A\u002A*
X135475000Y-38000000D03*
D11*
X138015000Y-38000000D03*
X140555000Y-38000000D03*
X143095000Y-38000000D03*
X145635000Y-38000000D03*
X148175000Y-38000000D03*
X150715000Y-38000000D03*
G04 #@! TD*
M02*
