%FSLAX45Y45*%
G04 Gerber Fmt 4.5, Leading zero omitted, Abs format (unit mm)*
G04 Created by KiCad (PCBNEW (6.0.5)) date 2022-07-08 11:42:06*
%MOMM*%
%LPD*%
G01*
G04 APERTURE LIST*
%TA.AperFunction,Profile*%
%ADD10C,0.100000*%
%TD*%
%ADD11C,0.200000*%
%ADD12C,0.040000*%
%ADD13C,0.100000*%
%ADD14C,0.220000*%
G04 APERTURE END LIST*
D10*
X12651579Y-3111421D02*
X12651579Y-6011421D01*
X15755000Y-6230001D02*
G75*
G03*
X15953579Y-6011421I-21010J218581D01*
G01*
X15953579Y-3111421D02*
X15953579Y-6011421D01*
X12853579Y-2911421D02*
X15753579Y-2911421D01*
X15953579Y-3111421D02*
G75*
G03*
X15753579Y-2911421I-199999J1D01*
G01*
X12853579Y-2911419D02*
G75*
G03*
X12651579Y-3111421I1J-202011D01*
G01*
X12651571Y-6011421D02*
G75*
G03*
X12855000Y-6230000I209409J-9059D01*
G01*
X12855000Y-6230000D02*
X15755000Y-6230000D01*
D11*
D12*
X13740000Y-5585000D02*
X13780000Y-5625000D01*
X13780000Y-5585000D02*
X13740000Y-5625000D01*
X13779950Y-5887402D02*
X13819950Y-5927402D01*
X13819950Y-5887402D02*
X13779950Y-5927402D01*
X14020000Y-5850000D02*
X14060000Y-5890000D01*
X14060000Y-5850000D02*
X14020000Y-5890000D01*
X14085000Y-5455000D02*
X14125000Y-5495000D01*
X14125000Y-5455000D02*
X14085000Y-5495000D01*
X14130000Y-5880000D02*
X14170000Y-5920000D01*
X14170000Y-5880000D02*
X14130000Y-5920000D01*
X14175000Y-6160000D02*
X14215000Y-6200000D01*
X14215000Y-6160000D02*
X14175000Y-6200000D01*
X14222147Y-5494036D02*
X14262147Y-5534036D01*
X14262147Y-5494036D02*
X14222147Y-5534036D01*
X14225000Y-5835000D02*
X14265000Y-5875000D01*
X14265000Y-5835000D02*
X14225000Y-5875000D01*
X14355000Y-5805000D02*
X14395000Y-5845000D01*
X14395000Y-5805000D02*
X14355000Y-5845000D01*
X14380000Y-6160000D02*
X14420000Y-6200000D01*
X14420000Y-6160000D02*
X14380000Y-6200000D01*
X14530000Y-6160000D02*
X14570000Y-6200000D01*
X14570000Y-6160000D02*
X14530000Y-6200000D01*
X14659902Y-5505000D02*
X14699902Y-5545000D01*
X14699902Y-5505000D02*
X14659902Y-5545000D01*
X14659902Y-5505000D02*
X14699902Y-5545000D01*
X14699902Y-5505000D02*
X14659902Y-5545000D01*
X14721318Y-5880064D02*
X14761318Y-5920064D01*
X14761318Y-5880064D02*
X14721318Y-5920064D01*
X14798298Y-5569242D02*
X14838298Y-5609242D01*
X14838298Y-5569242D02*
X14798298Y-5609242D01*
X14905000Y-5565000D02*
X14945000Y-5605000D01*
X14945000Y-5565000D02*
X14905000Y-5605000D01*
X15095000Y-5605000D02*
X15135000Y-5645000D01*
X15135000Y-5605000D02*
X15095000Y-5645000D01*
D13*
X12920000Y-3535000D02*
G75*
G03*
X12920000Y-3535000I-50000J0D01*
G01*
X12920000Y-3789000D02*
G75*
G03*
X12920000Y-3789000I-50000J0D01*
G01*
X12920000Y-4043000D02*
G75*
G03*
X12920000Y-4043000I-50000J0D01*
G01*
X12920000Y-4297000D02*
G75*
G03*
X12920000Y-4297000I-50000J0D01*
G01*
X12920000Y-4551000D02*
G75*
G03*
X12920000Y-4551000I-50000J0D01*
G01*
X12920000Y-4805000D02*
G75*
G03*
X12920000Y-4805000I-50000J0D01*
G01*
X12920000Y-5059000D02*
G75*
G03*
X12920000Y-5059000I-50000J0D01*
G01*
X12920000Y-5313000D02*
G75*
G03*
X12920000Y-5313000I-50000J0D01*
G01*
X12920000Y-5567000D02*
G75*
G03*
X12920000Y-5567000I-50000J0D01*
G01*
X13340000Y-3130000D02*
G75*
G03*
X13340000Y-3130000I-50000J0D01*
G01*
X13594000Y-3130000D02*
G75*
G03*
X13594000Y-3130000I-50000J0D01*
G01*
X13595000Y-4300000D02*
G75*
G03*
X13595000Y-4300000I-50000J0D01*
G01*
X13595000Y-4550000D02*
G75*
G03*
X13595000Y-4550000I-50000J0D01*
G01*
X13595000Y-4800000D02*
G75*
G03*
X13595000Y-4800000I-50000J0D01*
G01*
X13595000Y-5060000D02*
G75*
G03*
X13595000Y-5060000I-50000J0D01*
G01*
X13595000Y-5310000D02*
G75*
G03*
X13595000Y-5310000I-50000J0D01*
G01*
X13597500Y-3800000D02*
G75*
G03*
X13597500Y-3800000I-50000J0D01*
G01*
X13597500Y-4050000D02*
G75*
G03*
X13597500Y-4050000I-50000J0D01*
G01*
X13848000Y-3130000D02*
G75*
G03*
X13848000Y-3130000I-50000J0D01*
G01*
X13849000Y-4300000D02*
G75*
G03*
X13849000Y-4300000I-50000J0D01*
G01*
X13849000Y-4550000D02*
G75*
G03*
X13849000Y-4550000I-50000J0D01*
G01*
X13849000Y-4800000D02*
G75*
G03*
X13849000Y-4800000I-50000J0D01*
G01*
X13849000Y-5060000D02*
G75*
G03*
X13849000Y-5060000I-50000J0D01*
G01*
X13849000Y-5310000D02*
G75*
G03*
X13849000Y-5310000I-50000J0D01*
G01*
X13851500Y-3800000D02*
G75*
G03*
X13851500Y-3800000I-50000J0D01*
G01*
X13851500Y-4050000D02*
G75*
G03*
X13851500Y-4050000I-50000J0D01*
G01*
X14102000Y-3130000D02*
G75*
G03*
X14102000Y-3130000I-50000J0D01*
G01*
X14103000Y-4300000D02*
G75*
G03*
X14103000Y-4300000I-50000J0D01*
G01*
X14103000Y-4550000D02*
G75*
G03*
X14103000Y-4550000I-50000J0D01*
G01*
X14103000Y-4800000D02*
G75*
G03*
X14103000Y-4800000I-50000J0D01*
G01*
X14103000Y-5060000D02*
G75*
G03*
X14103000Y-5060000I-50000J0D01*
G01*
X14103000Y-5310000D02*
G75*
G03*
X14103000Y-5310000I-50000J0D01*
G01*
X14105500Y-3800000D02*
G75*
G03*
X14105500Y-3800000I-50000J0D01*
G01*
X14105500Y-4050000D02*
G75*
G03*
X14105500Y-4050000I-50000J0D01*
G01*
X14356000Y-3130000D02*
G75*
G03*
X14356000Y-3130000I-50000J0D01*
G01*
X14357000Y-4300000D02*
G75*
G03*
X14357000Y-4300000I-50000J0D01*
G01*
X14357000Y-4550000D02*
G75*
G03*
X14357000Y-4550000I-50000J0D01*
G01*
X14357000Y-4800000D02*
G75*
G03*
X14357000Y-4800000I-50000J0D01*
G01*
X14357000Y-5060000D02*
G75*
G03*
X14357000Y-5060000I-50000J0D01*
G01*
X14357000Y-5310000D02*
G75*
G03*
X14357000Y-5310000I-50000J0D01*
G01*
X14359500Y-3800000D02*
G75*
G03*
X14359500Y-3800000I-50000J0D01*
G01*
X14359500Y-4050000D02*
G75*
G03*
X14359500Y-4050000I-50000J0D01*
G01*
X14610000Y-3130000D02*
G75*
G03*
X14610000Y-3130000I-50000J0D01*
G01*
X14611000Y-4300000D02*
G75*
G03*
X14611000Y-4300000I-50000J0D01*
G01*
X14611000Y-4550000D02*
G75*
G03*
X14611000Y-4550000I-50000J0D01*
G01*
X14611000Y-4800000D02*
G75*
G03*
X14611000Y-4800000I-50000J0D01*
G01*
X14611000Y-5060000D02*
G75*
G03*
X14611000Y-5060000I-50000J0D01*
G01*
X14611000Y-5310000D02*
G75*
G03*
X14611000Y-5310000I-50000J0D01*
G01*
X14613500Y-3800000D02*
G75*
G03*
X14613500Y-3800000I-50000J0D01*
G01*
X14613500Y-4050000D02*
G75*
G03*
X14613500Y-4050000I-50000J0D01*
G01*
X14864000Y-3130000D02*
G75*
G03*
X14864000Y-3130000I-50000J0D01*
G01*
X14865000Y-4300000D02*
G75*
G03*
X14865000Y-4300000I-50000J0D01*
G01*
X14865000Y-4550000D02*
G75*
G03*
X14865000Y-4550000I-50000J0D01*
G01*
X14865000Y-4800000D02*
G75*
G03*
X14865000Y-4800000I-50000J0D01*
G01*
X14865000Y-5060000D02*
G75*
G03*
X14865000Y-5060000I-50000J0D01*
G01*
X14865000Y-5310000D02*
G75*
G03*
X14865000Y-5310000I-50000J0D01*
G01*
X14867500Y-3800000D02*
G75*
G03*
X14867500Y-3800000I-50000J0D01*
G01*
X14867500Y-4050000D02*
G75*
G03*
X14867500Y-4050000I-50000J0D01*
G01*
X15118000Y-3130000D02*
G75*
G03*
X15118000Y-3130000I-50000J0D01*
G01*
X15119000Y-4300000D02*
G75*
G03*
X15119000Y-4300000I-50000J0D01*
G01*
X15119000Y-4550000D02*
G75*
G03*
X15119000Y-4550000I-50000J0D01*
G01*
X15119000Y-4800000D02*
G75*
G03*
X15119000Y-4800000I-50000J0D01*
G01*
X15119000Y-5060000D02*
G75*
G03*
X15119000Y-5060000I-50000J0D01*
G01*
X15119000Y-5310000D02*
G75*
G03*
X15119000Y-5310000I-50000J0D01*
G01*
X15121500Y-3800000D02*
G75*
G03*
X15121500Y-3800000I-50000J0D01*
G01*
X15121500Y-4050000D02*
G75*
G03*
X15121500Y-4050000I-50000J0D01*
G01*
X15372000Y-3130000D02*
G75*
G03*
X15372000Y-3130000I-50000J0D01*
G01*
X15560000Y-3800000D02*
G75*
G03*
X15560000Y-3800000I-50000J0D01*
G01*
X15560000Y-4054000D02*
G75*
G03*
X15560000Y-4054000I-50000J0D01*
G01*
X15560000Y-4308000D02*
G75*
G03*
X15560000Y-4308000I-50000J0D01*
G01*
X15560000Y-4562000D02*
G75*
G03*
X15560000Y-4562000I-50000J0D01*
G01*
X15560000Y-4816000D02*
G75*
G03*
X15560000Y-4816000I-50000J0D01*
G01*
X15560000Y-5070000D02*
G75*
G03*
X15560000Y-5070000I-50000J0D01*
G01*
X15560000Y-5324000D02*
G75*
G03*
X15560000Y-5324000I-50000J0D01*
G01*
X15820000Y-3800000D02*
G75*
G03*
X15820000Y-3800000I-50000J0D01*
G01*
X15820000Y-4054000D02*
G75*
G03*
X15820000Y-4054000I-50000J0D01*
G01*
X15820000Y-4308000D02*
G75*
G03*
X15820000Y-4308000I-50000J0D01*
G01*
X15820000Y-4562000D02*
G75*
G03*
X15820000Y-4562000I-50000J0D01*
G01*
X15820000Y-4816000D02*
G75*
G03*
X15820000Y-4816000I-50000J0D01*
G01*
X15820000Y-5070000D02*
G75*
G03*
X15820000Y-5070000I-50000J0D01*
G01*
X15820000Y-5324000D02*
G75*
G03*
X15820000Y-5324000I-50000J0D01*
G01*
D14*
X12852000Y-3000421D02*
X12852000Y-3220421D01*
X12742000Y-3110421D02*
X12962000Y-3110421D01*
X12852000Y-5900421D02*
X12852000Y-6120421D01*
X12742000Y-6010421D02*
X12962000Y-6010421D01*
X15752000Y-3000421D02*
X15752000Y-3220421D01*
X15642000Y-3110421D02*
X15862000Y-3110421D01*
X15752000Y-5900421D02*
X15752000Y-6120421D01*
X15642000Y-6010421D02*
X15862000Y-6010421D01*
D11*
X12903994Y-6545476D02*
X12903994Y-6345476D01*
X12951613Y-6345476D01*
X12980184Y-6355000D01*
X12999232Y-6374048D01*
X13008756Y-6393095D01*
X13018279Y-6431190D01*
X13018279Y-6459762D01*
X13008756Y-6497857D01*
X12999232Y-6516905D01*
X12980184Y-6535952D01*
X12951613Y-6545476D01*
X12903994Y-6545476D01*
X13103994Y-6545476D02*
X13103994Y-6412143D01*
X13103994Y-6450238D02*
X13113517Y-6431190D01*
X13123041Y-6421667D01*
X13142089Y-6412143D01*
X13161137Y-6412143D01*
X13227803Y-6545476D02*
X13227803Y-6412143D01*
X13227803Y-6345476D02*
X13218279Y-6355000D01*
X13227803Y-6364524D01*
X13237327Y-6355000D01*
X13227803Y-6345476D01*
X13227803Y-6364524D01*
X13351613Y-6545476D02*
X13332565Y-6535952D01*
X13323041Y-6516905D01*
X13323041Y-6345476D01*
X13456375Y-6545476D02*
X13437327Y-6535952D01*
X13427803Y-6516905D01*
X13427803Y-6345476D01*
X13684946Y-6545476D02*
X13684946Y-6345476D01*
X13751613Y-6488333D01*
X13818279Y-6345476D01*
X13818279Y-6545476D01*
X13999232Y-6545476D02*
X13999232Y-6440714D01*
X13989708Y-6421667D01*
X13970660Y-6412143D01*
X13932565Y-6412143D01*
X13913517Y-6421667D01*
X13999232Y-6535952D02*
X13980184Y-6545476D01*
X13932565Y-6545476D01*
X13913517Y-6535952D01*
X13903994Y-6516905D01*
X13903994Y-6497857D01*
X13913517Y-6478809D01*
X13932565Y-6469286D01*
X13980184Y-6469286D01*
X13999232Y-6459762D01*
X14094470Y-6412143D02*
X14094470Y-6612143D01*
X14094470Y-6421667D02*
X14113517Y-6412143D01*
X14151613Y-6412143D01*
X14170660Y-6421667D01*
X14180184Y-6431190D01*
X14189708Y-6450238D01*
X14189708Y-6507381D01*
X14180184Y-6526428D01*
X14170660Y-6535952D01*
X14151613Y-6545476D01*
X14113517Y-6545476D01*
X14094470Y-6535952D01*
X14275422Y-6526428D02*
X14284946Y-6535952D01*
X14275422Y-6545476D01*
X14265898Y-6535952D01*
X14275422Y-6526428D01*
X14275422Y-6545476D01*
X14275422Y-6421667D02*
X14284946Y-6431190D01*
X14275422Y-6440714D01*
X14265898Y-6431190D01*
X14275422Y-6421667D01*
X14275422Y-6440714D01*
D12*
X12606375Y-6855000D02*
X12646375Y-6895000D01*
X12646375Y-6855000D02*
X12606375Y-6895000D01*
D11*
X12942089Y-6765476D02*
X12961137Y-6765476D01*
X12980184Y-6775000D01*
X12989708Y-6784524D01*
X12999232Y-6803571D01*
X13008756Y-6841667D01*
X13008756Y-6889286D01*
X12999232Y-6927381D01*
X12989708Y-6946428D01*
X12980184Y-6955952D01*
X12961137Y-6965476D01*
X12942089Y-6965476D01*
X12923041Y-6955952D01*
X12913517Y-6946428D01*
X12903994Y-6927381D01*
X12894470Y-6889286D01*
X12894470Y-6841667D01*
X12903994Y-6803571D01*
X12913517Y-6784524D01*
X12923041Y-6775000D01*
X12942089Y-6765476D01*
X13094470Y-6946428D02*
X13103994Y-6955952D01*
X13094470Y-6965476D01*
X13084946Y-6955952D01*
X13094470Y-6946428D01*
X13094470Y-6965476D01*
X13275422Y-6832143D02*
X13275422Y-6965476D01*
X13227803Y-6755952D02*
X13180184Y-6898809D01*
X13303994Y-6898809D01*
X13418279Y-6765476D02*
X13437327Y-6765476D01*
X13456375Y-6775000D01*
X13465898Y-6784524D01*
X13475422Y-6803571D01*
X13484946Y-6841667D01*
X13484946Y-6889286D01*
X13475422Y-6927381D01*
X13465898Y-6946428D01*
X13456375Y-6955952D01*
X13437327Y-6965476D01*
X13418279Y-6965476D01*
X13399232Y-6955952D01*
X13389708Y-6946428D01*
X13380184Y-6927381D01*
X13370660Y-6889286D01*
X13370660Y-6841667D01*
X13380184Y-6803571D01*
X13389708Y-6784524D01*
X13399232Y-6775000D01*
X13418279Y-6765476D01*
X13608756Y-6765476D02*
X13627803Y-6765476D01*
X13646851Y-6775000D01*
X13656375Y-6784524D01*
X13665898Y-6803571D01*
X13675422Y-6841667D01*
X13675422Y-6889286D01*
X13665898Y-6927381D01*
X13656375Y-6946428D01*
X13646851Y-6955952D01*
X13627803Y-6965476D01*
X13608756Y-6965476D01*
X13589708Y-6955952D01*
X13580184Y-6946428D01*
X13570660Y-6927381D01*
X13561137Y-6889286D01*
X13561137Y-6841667D01*
X13570660Y-6803571D01*
X13580184Y-6784524D01*
X13589708Y-6775000D01*
X13608756Y-6765476D01*
X13761137Y-6965476D02*
X13761137Y-6832143D01*
X13761137Y-6851190D02*
X13770660Y-6841667D01*
X13789708Y-6832143D01*
X13818279Y-6832143D01*
X13837327Y-6841667D01*
X13846851Y-6860714D01*
X13846851Y-6965476D01*
X13846851Y-6860714D02*
X13856375Y-6841667D01*
X13875422Y-6832143D01*
X13903994Y-6832143D01*
X13923041Y-6841667D01*
X13932565Y-6860714D01*
X13932565Y-6965476D01*
X14027803Y-6965476D02*
X14027803Y-6832143D01*
X14027803Y-6851190D02*
X14037327Y-6841667D01*
X14056375Y-6832143D01*
X14084946Y-6832143D01*
X14103994Y-6841667D01*
X14113517Y-6860714D01*
X14113517Y-6965476D01*
X14113517Y-6860714D02*
X14123041Y-6841667D01*
X14142089Y-6832143D01*
X14170660Y-6832143D01*
X14189708Y-6841667D01*
X14199232Y-6860714D01*
X14199232Y-6965476D01*
X14589708Y-6755952D02*
X14418279Y-7013095D01*
X14846851Y-6765476D02*
X14865898Y-6765476D01*
X14884946Y-6775000D01*
X14894470Y-6784524D01*
X14903994Y-6803571D01*
X14913517Y-6841667D01*
X14913517Y-6889286D01*
X14903994Y-6927381D01*
X14894470Y-6946428D01*
X14884946Y-6955952D01*
X14865898Y-6965476D01*
X14846851Y-6965476D01*
X14827803Y-6955952D01*
X14818279Y-6946428D01*
X14808756Y-6927381D01*
X14799232Y-6889286D01*
X14799232Y-6841667D01*
X14808756Y-6803571D01*
X14818279Y-6784524D01*
X14827803Y-6775000D01*
X14846851Y-6765476D01*
X14999232Y-6946428D02*
X15008756Y-6955952D01*
X14999232Y-6965476D01*
X14989708Y-6955952D01*
X14999232Y-6946428D01*
X14999232Y-6965476D01*
X15132565Y-6765476D02*
X15151613Y-6765476D01*
X15170660Y-6775000D01*
X15180184Y-6784524D01*
X15189708Y-6803571D01*
X15199232Y-6841667D01*
X15199232Y-6889286D01*
X15189708Y-6927381D01*
X15180184Y-6946428D01*
X15170660Y-6955952D01*
X15151613Y-6965476D01*
X15132565Y-6965476D01*
X15113517Y-6955952D01*
X15103994Y-6946428D01*
X15094470Y-6927381D01*
X15084946Y-6889286D01*
X15084946Y-6841667D01*
X15094470Y-6803571D01*
X15103994Y-6784524D01*
X15113517Y-6775000D01*
X15132565Y-6765476D01*
X15389708Y-6965476D02*
X15275422Y-6965476D01*
X15332565Y-6965476D02*
X15332565Y-6765476D01*
X15313517Y-6794048D01*
X15294470Y-6813095D01*
X15275422Y-6822619D01*
X15570660Y-6765476D02*
X15475422Y-6765476D01*
X15465898Y-6860714D01*
X15475422Y-6851190D01*
X15494470Y-6841667D01*
X15542089Y-6841667D01*
X15561137Y-6851190D01*
X15570660Y-6860714D01*
X15580184Y-6879762D01*
X15580184Y-6927381D01*
X15570660Y-6946428D01*
X15561137Y-6955952D01*
X15542089Y-6965476D01*
X15494470Y-6965476D01*
X15475422Y-6955952D01*
X15465898Y-6946428D01*
X15646851Y-6765476D02*
X15780184Y-6765476D01*
X15694470Y-6965476D01*
X15846851Y-6765476D02*
X15846851Y-6803571D01*
X15923041Y-6765476D02*
X15923041Y-6803571D01*
X16218279Y-7041667D02*
X16208756Y-7032143D01*
X16189708Y-7003571D01*
X16180184Y-6984524D01*
X16170660Y-6955952D01*
X16161137Y-6908333D01*
X16161137Y-6870238D01*
X16170660Y-6822619D01*
X16180184Y-6794048D01*
X16189708Y-6775000D01*
X16208756Y-6746428D01*
X16218279Y-6736905D01*
X16399232Y-6965476D02*
X16284946Y-6965476D01*
X16342089Y-6965476D02*
X16342089Y-6765476D01*
X16323041Y-6794048D01*
X16303994Y-6813095D01*
X16284946Y-6822619D01*
X16465898Y-6765476D02*
X16599232Y-6765476D01*
X16513517Y-6965476D01*
X16827803Y-6965476D02*
X16827803Y-6765476D01*
X16913518Y-6965476D02*
X16913518Y-6860714D01*
X16903994Y-6841667D01*
X16884946Y-6832143D01*
X16856375Y-6832143D01*
X16837327Y-6841667D01*
X16827803Y-6851190D01*
X17037327Y-6965476D02*
X17018279Y-6955952D01*
X17008756Y-6946428D01*
X16999232Y-6927381D01*
X16999232Y-6870238D01*
X17008756Y-6851190D01*
X17018279Y-6841667D01*
X17037327Y-6832143D01*
X17065899Y-6832143D01*
X17084946Y-6841667D01*
X17094470Y-6851190D01*
X17103994Y-6870238D01*
X17103994Y-6927381D01*
X17094470Y-6946428D01*
X17084946Y-6955952D01*
X17065899Y-6965476D01*
X17037327Y-6965476D01*
X17218279Y-6965476D02*
X17199232Y-6955952D01*
X17189708Y-6936905D01*
X17189708Y-6765476D01*
X17370660Y-6955952D02*
X17351613Y-6965476D01*
X17313518Y-6965476D01*
X17294470Y-6955952D01*
X17284946Y-6936905D01*
X17284946Y-6860714D01*
X17294470Y-6841667D01*
X17313518Y-6832143D01*
X17351613Y-6832143D01*
X17370660Y-6841667D01*
X17380184Y-6860714D01*
X17380184Y-6879762D01*
X17284946Y-6898809D01*
X17456375Y-6955952D02*
X17475422Y-6965476D01*
X17513518Y-6965476D01*
X17532565Y-6955952D01*
X17542089Y-6936905D01*
X17542089Y-6927381D01*
X17532565Y-6908333D01*
X17513518Y-6898809D01*
X17484946Y-6898809D01*
X17465899Y-6889286D01*
X17456375Y-6870238D01*
X17456375Y-6860714D01*
X17465899Y-6841667D01*
X17484946Y-6832143D01*
X17513518Y-6832143D01*
X17532565Y-6841667D01*
X17608756Y-7041667D02*
X17618279Y-7032143D01*
X17637327Y-7003571D01*
X17646851Y-6984524D01*
X17656375Y-6955952D01*
X17665899Y-6908333D01*
X17665899Y-6870238D01*
X17656375Y-6822619D01*
X17646851Y-6794048D01*
X17637327Y-6775000D01*
X17618279Y-6746428D01*
X17608756Y-6736905D01*
D13*
X12646375Y-7139000D02*
G75*
G03*
X12646375Y-7139000I-50000J0D01*
G01*
D11*
X13008756Y-7229476D02*
X12894470Y-7229476D01*
X12951613Y-7229476D02*
X12951613Y-7029476D01*
X12932565Y-7058048D01*
X12913517Y-7077095D01*
X12894470Y-7086619D01*
X13094470Y-7210428D02*
X13103994Y-7219952D01*
X13094470Y-7229476D01*
X13084946Y-7219952D01*
X13094470Y-7210428D01*
X13094470Y-7229476D01*
X13227803Y-7029476D02*
X13246851Y-7029476D01*
X13265898Y-7039000D01*
X13275422Y-7048524D01*
X13284946Y-7067571D01*
X13294470Y-7105667D01*
X13294470Y-7153286D01*
X13284946Y-7191381D01*
X13275422Y-7210428D01*
X13265898Y-7219952D01*
X13246851Y-7229476D01*
X13227803Y-7229476D01*
X13208756Y-7219952D01*
X13199232Y-7210428D01*
X13189708Y-7191381D01*
X13180184Y-7153286D01*
X13180184Y-7105667D01*
X13189708Y-7067571D01*
X13199232Y-7048524D01*
X13208756Y-7039000D01*
X13227803Y-7029476D01*
X13418279Y-7029476D02*
X13437327Y-7029476D01*
X13456375Y-7039000D01*
X13465898Y-7048524D01*
X13475422Y-7067571D01*
X13484946Y-7105667D01*
X13484946Y-7153286D01*
X13475422Y-7191381D01*
X13465898Y-7210428D01*
X13456375Y-7219952D01*
X13437327Y-7229476D01*
X13418279Y-7229476D01*
X13399232Y-7219952D01*
X13389708Y-7210428D01*
X13380184Y-7191381D01*
X13370660Y-7153286D01*
X13370660Y-7105667D01*
X13380184Y-7067571D01*
X13389708Y-7048524D01*
X13399232Y-7039000D01*
X13418279Y-7029476D01*
X13608756Y-7029476D02*
X13627803Y-7029476D01*
X13646851Y-7039000D01*
X13656375Y-7048524D01*
X13665898Y-7067571D01*
X13675422Y-7105667D01*
X13675422Y-7153286D01*
X13665898Y-7191381D01*
X13656375Y-7210428D01*
X13646851Y-7219952D01*
X13627803Y-7229476D01*
X13608756Y-7229476D01*
X13589708Y-7219952D01*
X13580184Y-7210428D01*
X13570660Y-7191381D01*
X13561137Y-7153286D01*
X13561137Y-7105667D01*
X13570660Y-7067571D01*
X13580184Y-7048524D01*
X13589708Y-7039000D01*
X13608756Y-7029476D01*
X13761137Y-7229476D02*
X13761137Y-7096143D01*
X13761137Y-7115190D02*
X13770660Y-7105667D01*
X13789708Y-7096143D01*
X13818279Y-7096143D01*
X13837327Y-7105667D01*
X13846851Y-7124714D01*
X13846851Y-7229476D01*
X13846851Y-7124714D02*
X13856375Y-7105667D01*
X13875422Y-7096143D01*
X13903994Y-7096143D01*
X13923041Y-7105667D01*
X13932565Y-7124714D01*
X13932565Y-7229476D01*
X14027803Y-7229476D02*
X14027803Y-7096143D01*
X14027803Y-7115190D02*
X14037327Y-7105667D01*
X14056375Y-7096143D01*
X14084946Y-7096143D01*
X14103994Y-7105667D01*
X14113517Y-7124714D01*
X14113517Y-7229476D01*
X14113517Y-7124714D02*
X14123041Y-7105667D01*
X14142089Y-7096143D01*
X14170660Y-7096143D01*
X14189708Y-7105667D01*
X14199232Y-7124714D01*
X14199232Y-7229476D01*
X14589708Y-7019952D02*
X14418279Y-7277095D01*
X14846851Y-7029476D02*
X14865898Y-7029476D01*
X14884946Y-7039000D01*
X14894470Y-7048524D01*
X14903994Y-7067571D01*
X14913517Y-7105667D01*
X14913517Y-7153286D01*
X14903994Y-7191381D01*
X14894470Y-7210428D01*
X14884946Y-7219952D01*
X14865898Y-7229476D01*
X14846851Y-7229476D01*
X14827803Y-7219952D01*
X14818279Y-7210428D01*
X14808756Y-7191381D01*
X14799232Y-7153286D01*
X14799232Y-7105667D01*
X14808756Y-7067571D01*
X14818279Y-7048524D01*
X14827803Y-7039000D01*
X14846851Y-7029476D01*
X14999232Y-7210428D02*
X15008756Y-7219952D01*
X14999232Y-7229476D01*
X14989708Y-7219952D01*
X14999232Y-7210428D01*
X14999232Y-7229476D01*
X15132565Y-7029476D02*
X15151613Y-7029476D01*
X15170660Y-7039000D01*
X15180184Y-7048524D01*
X15189708Y-7067571D01*
X15199232Y-7105667D01*
X15199232Y-7153286D01*
X15189708Y-7191381D01*
X15180184Y-7210428D01*
X15170660Y-7219952D01*
X15151613Y-7229476D01*
X15132565Y-7229476D01*
X15113517Y-7219952D01*
X15103994Y-7210428D01*
X15094470Y-7191381D01*
X15084946Y-7153286D01*
X15084946Y-7105667D01*
X15094470Y-7067571D01*
X15103994Y-7048524D01*
X15113517Y-7039000D01*
X15132565Y-7029476D01*
X15265898Y-7029476D02*
X15389708Y-7029476D01*
X15323041Y-7105667D01*
X15351613Y-7105667D01*
X15370660Y-7115190D01*
X15380184Y-7124714D01*
X15389708Y-7143762D01*
X15389708Y-7191381D01*
X15380184Y-7210428D01*
X15370660Y-7219952D01*
X15351613Y-7229476D01*
X15294470Y-7229476D01*
X15275422Y-7219952D01*
X15265898Y-7210428D01*
X15484946Y-7229476D02*
X15523041Y-7229476D01*
X15542089Y-7219952D01*
X15551613Y-7210428D01*
X15570660Y-7181857D01*
X15580184Y-7143762D01*
X15580184Y-7067571D01*
X15570660Y-7048524D01*
X15561137Y-7039000D01*
X15542089Y-7029476D01*
X15503994Y-7029476D01*
X15484946Y-7039000D01*
X15475422Y-7048524D01*
X15465898Y-7067571D01*
X15465898Y-7115190D01*
X15475422Y-7134238D01*
X15484946Y-7143762D01*
X15503994Y-7153286D01*
X15542089Y-7153286D01*
X15561137Y-7143762D01*
X15570660Y-7134238D01*
X15580184Y-7115190D01*
X15751613Y-7096143D02*
X15751613Y-7229476D01*
X15703994Y-7019952D02*
X15656375Y-7162809D01*
X15780184Y-7162809D01*
X15846851Y-7029476D02*
X15846851Y-7067571D01*
X15923041Y-7029476D02*
X15923041Y-7067571D01*
X16218279Y-7305667D02*
X16208756Y-7296143D01*
X16189708Y-7267571D01*
X16180184Y-7248524D01*
X16170660Y-7219952D01*
X16161137Y-7172333D01*
X16161137Y-7134238D01*
X16170660Y-7086619D01*
X16180184Y-7058048D01*
X16189708Y-7039000D01*
X16208756Y-7010428D01*
X16218279Y-7000905D01*
X16323041Y-7115190D02*
X16303994Y-7105667D01*
X16294470Y-7096143D01*
X16284946Y-7077095D01*
X16284946Y-7067571D01*
X16294470Y-7048524D01*
X16303994Y-7039000D01*
X16323041Y-7029476D01*
X16361137Y-7029476D01*
X16380184Y-7039000D01*
X16389708Y-7048524D01*
X16399232Y-7067571D01*
X16399232Y-7077095D01*
X16389708Y-7096143D01*
X16380184Y-7105667D01*
X16361137Y-7115190D01*
X16323041Y-7115190D01*
X16303994Y-7124714D01*
X16294470Y-7134238D01*
X16284946Y-7153286D01*
X16284946Y-7191381D01*
X16294470Y-7210428D01*
X16303994Y-7219952D01*
X16323041Y-7229476D01*
X16361137Y-7229476D01*
X16380184Y-7219952D01*
X16389708Y-7210428D01*
X16399232Y-7191381D01*
X16399232Y-7153286D01*
X16389708Y-7134238D01*
X16380184Y-7124714D01*
X16361137Y-7115190D01*
X16589708Y-7229476D02*
X16475422Y-7229476D01*
X16532565Y-7229476D02*
X16532565Y-7029476D01*
X16513517Y-7058048D01*
X16494470Y-7077095D01*
X16475422Y-7086619D01*
X16827803Y-7229476D02*
X16827803Y-7029476D01*
X16913518Y-7229476D02*
X16913518Y-7124714D01*
X16903994Y-7105667D01*
X16884946Y-7096143D01*
X16856375Y-7096143D01*
X16837327Y-7105667D01*
X16827803Y-7115190D01*
X17037327Y-7229476D02*
X17018279Y-7219952D01*
X17008756Y-7210428D01*
X16999232Y-7191381D01*
X16999232Y-7134238D01*
X17008756Y-7115190D01*
X17018279Y-7105667D01*
X17037327Y-7096143D01*
X17065899Y-7096143D01*
X17084946Y-7105667D01*
X17094470Y-7115190D01*
X17103994Y-7134238D01*
X17103994Y-7191381D01*
X17094470Y-7210428D01*
X17084946Y-7219952D01*
X17065899Y-7229476D01*
X17037327Y-7229476D01*
X17218279Y-7229476D02*
X17199232Y-7219952D01*
X17189708Y-7200905D01*
X17189708Y-7029476D01*
X17370660Y-7219952D02*
X17351613Y-7229476D01*
X17313518Y-7229476D01*
X17294470Y-7219952D01*
X17284946Y-7200905D01*
X17284946Y-7124714D01*
X17294470Y-7105667D01*
X17313518Y-7096143D01*
X17351613Y-7096143D01*
X17370660Y-7105667D01*
X17380184Y-7124714D01*
X17380184Y-7143762D01*
X17284946Y-7162809D01*
X17456375Y-7219952D02*
X17475422Y-7229476D01*
X17513518Y-7229476D01*
X17532565Y-7219952D01*
X17542089Y-7200905D01*
X17542089Y-7191381D01*
X17532565Y-7172333D01*
X17513518Y-7162809D01*
X17484946Y-7162809D01*
X17465899Y-7153286D01*
X17456375Y-7134238D01*
X17456375Y-7124714D01*
X17465899Y-7105667D01*
X17484946Y-7096143D01*
X17513518Y-7096143D01*
X17532565Y-7105667D01*
X17608756Y-7305667D02*
X17618279Y-7296143D01*
X17637327Y-7267571D01*
X17646851Y-7248524D01*
X17656375Y-7219952D01*
X17665899Y-7172333D01*
X17665899Y-7134238D01*
X17656375Y-7086619D01*
X17646851Y-7058048D01*
X17637327Y-7039000D01*
X17618279Y-7010428D01*
X17608756Y-7000905D01*
X12546375Y-7303000D02*
X12546375Y-7503000D01*
X12446375Y-7403000D02*
X12646375Y-7403000D01*
X12894470Y-7312524D02*
X12903994Y-7303000D01*
X12923041Y-7293476D01*
X12970660Y-7293476D01*
X12989708Y-7303000D01*
X12999232Y-7312524D01*
X13008756Y-7331571D01*
X13008756Y-7350619D01*
X12999232Y-7379190D01*
X12884946Y-7493476D01*
X13008756Y-7493476D01*
X13094470Y-7474428D02*
X13103994Y-7483952D01*
X13094470Y-7493476D01*
X13084946Y-7483952D01*
X13094470Y-7474428D01*
X13094470Y-7493476D01*
X13180184Y-7312524D02*
X13189708Y-7303000D01*
X13208756Y-7293476D01*
X13256375Y-7293476D01*
X13275422Y-7303000D01*
X13284946Y-7312524D01*
X13294470Y-7331571D01*
X13294470Y-7350619D01*
X13284946Y-7379190D01*
X13170660Y-7493476D01*
X13294470Y-7493476D01*
X13418279Y-7293476D02*
X13437327Y-7293476D01*
X13456375Y-7303000D01*
X13465898Y-7312524D01*
X13475422Y-7331571D01*
X13484946Y-7369667D01*
X13484946Y-7417286D01*
X13475422Y-7455381D01*
X13465898Y-7474428D01*
X13456375Y-7483952D01*
X13437327Y-7493476D01*
X13418279Y-7493476D01*
X13399232Y-7483952D01*
X13389708Y-7474428D01*
X13380184Y-7455381D01*
X13370660Y-7417286D01*
X13370660Y-7369667D01*
X13380184Y-7331571D01*
X13389708Y-7312524D01*
X13399232Y-7303000D01*
X13418279Y-7293476D01*
X13608756Y-7293476D02*
X13627803Y-7293476D01*
X13646851Y-7303000D01*
X13656375Y-7312524D01*
X13665898Y-7331571D01*
X13675422Y-7369667D01*
X13675422Y-7417286D01*
X13665898Y-7455381D01*
X13656375Y-7474428D01*
X13646851Y-7483952D01*
X13627803Y-7493476D01*
X13608756Y-7493476D01*
X13589708Y-7483952D01*
X13580184Y-7474428D01*
X13570660Y-7455381D01*
X13561137Y-7417286D01*
X13561137Y-7369667D01*
X13570660Y-7331571D01*
X13580184Y-7312524D01*
X13589708Y-7303000D01*
X13608756Y-7293476D01*
X13761137Y-7493476D02*
X13761137Y-7360143D01*
X13761137Y-7379190D02*
X13770660Y-7369667D01*
X13789708Y-7360143D01*
X13818279Y-7360143D01*
X13837327Y-7369667D01*
X13846851Y-7388714D01*
X13846851Y-7493476D01*
X13846851Y-7388714D02*
X13856375Y-7369667D01*
X13875422Y-7360143D01*
X13903994Y-7360143D01*
X13923041Y-7369667D01*
X13932565Y-7388714D01*
X13932565Y-7493476D01*
X14027803Y-7493476D02*
X14027803Y-7360143D01*
X14027803Y-7379190D02*
X14037327Y-7369667D01*
X14056375Y-7360143D01*
X14084946Y-7360143D01*
X14103994Y-7369667D01*
X14113517Y-7388714D01*
X14113517Y-7493476D01*
X14113517Y-7388714D02*
X14123041Y-7369667D01*
X14142089Y-7360143D01*
X14170660Y-7360143D01*
X14189708Y-7369667D01*
X14199232Y-7388714D01*
X14199232Y-7493476D01*
X14589708Y-7283952D02*
X14418279Y-7541095D01*
X14846851Y-7293476D02*
X14865898Y-7293476D01*
X14884946Y-7303000D01*
X14894470Y-7312524D01*
X14903994Y-7331571D01*
X14913517Y-7369667D01*
X14913517Y-7417286D01*
X14903994Y-7455381D01*
X14894470Y-7474428D01*
X14884946Y-7483952D01*
X14865898Y-7493476D01*
X14846851Y-7493476D01*
X14827803Y-7483952D01*
X14818279Y-7474428D01*
X14808756Y-7455381D01*
X14799232Y-7417286D01*
X14799232Y-7369667D01*
X14808756Y-7331571D01*
X14818279Y-7312524D01*
X14827803Y-7303000D01*
X14846851Y-7293476D01*
X14999232Y-7474428D02*
X15008756Y-7483952D01*
X14999232Y-7493476D01*
X14989708Y-7483952D01*
X14999232Y-7474428D01*
X14999232Y-7493476D01*
X15132565Y-7293476D02*
X15151613Y-7293476D01*
X15170660Y-7303000D01*
X15180184Y-7312524D01*
X15189708Y-7331571D01*
X15199232Y-7369667D01*
X15199232Y-7417286D01*
X15189708Y-7455381D01*
X15180184Y-7474428D01*
X15170660Y-7483952D01*
X15151613Y-7493476D01*
X15132565Y-7493476D01*
X15113517Y-7483952D01*
X15103994Y-7474428D01*
X15094470Y-7455381D01*
X15084946Y-7417286D01*
X15084946Y-7369667D01*
X15094470Y-7331571D01*
X15103994Y-7312524D01*
X15113517Y-7303000D01*
X15132565Y-7293476D01*
X15313517Y-7379190D02*
X15294470Y-7369667D01*
X15284946Y-7360143D01*
X15275422Y-7341095D01*
X15275422Y-7331571D01*
X15284946Y-7312524D01*
X15294470Y-7303000D01*
X15313517Y-7293476D01*
X15351613Y-7293476D01*
X15370660Y-7303000D01*
X15380184Y-7312524D01*
X15389708Y-7331571D01*
X15389708Y-7341095D01*
X15380184Y-7360143D01*
X15370660Y-7369667D01*
X15351613Y-7379190D01*
X15313517Y-7379190D01*
X15294470Y-7388714D01*
X15284946Y-7398238D01*
X15275422Y-7417286D01*
X15275422Y-7455381D01*
X15284946Y-7474428D01*
X15294470Y-7483952D01*
X15313517Y-7493476D01*
X15351613Y-7493476D01*
X15370660Y-7483952D01*
X15380184Y-7474428D01*
X15389708Y-7455381D01*
X15389708Y-7417286D01*
X15380184Y-7398238D01*
X15370660Y-7388714D01*
X15351613Y-7379190D01*
X15561137Y-7293476D02*
X15523041Y-7293476D01*
X15503994Y-7303000D01*
X15494470Y-7312524D01*
X15475422Y-7341095D01*
X15465898Y-7379190D01*
X15465898Y-7455381D01*
X15475422Y-7474428D01*
X15484946Y-7483952D01*
X15503994Y-7493476D01*
X15542089Y-7493476D01*
X15561137Y-7483952D01*
X15570660Y-7474428D01*
X15580184Y-7455381D01*
X15580184Y-7407762D01*
X15570660Y-7388714D01*
X15561137Y-7379190D01*
X15542089Y-7369667D01*
X15503994Y-7369667D01*
X15484946Y-7379190D01*
X15475422Y-7388714D01*
X15465898Y-7407762D01*
X15751613Y-7293476D02*
X15713517Y-7293476D01*
X15694470Y-7303000D01*
X15684946Y-7312524D01*
X15665898Y-7341095D01*
X15656375Y-7379190D01*
X15656375Y-7455381D01*
X15665898Y-7474428D01*
X15675422Y-7483952D01*
X15694470Y-7493476D01*
X15732565Y-7493476D01*
X15751613Y-7483952D01*
X15761137Y-7474428D01*
X15770660Y-7455381D01*
X15770660Y-7407762D01*
X15761137Y-7388714D01*
X15751613Y-7379190D01*
X15732565Y-7369667D01*
X15694470Y-7369667D01*
X15675422Y-7379190D01*
X15665898Y-7388714D01*
X15656375Y-7407762D01*
X15846851Y-7293476D02*
X15846851Y-7331571D01*
X15923041Y-7293476D02*
X15923041Y-7331571D01*
X16218279Y-7569667D02*
X16208756Y-7560143D01*
X16189708Y-7531571D01*
X16180184Y-7512524D01*
X16170660Y-7483952D01*
X16161137Y-7436333D01*
X16161137Y-7398238D01*
X16170660Y-7350619D01*
X16180184Y-7322048D01*
X16189708Y-7303000D01*
X16208756Y-7274428D01*
X16218279Y-7264905D01*
X16380184Y-7360143D02*
X16380184Y-7493476D01*
X16332565Y-7283952D02*
X16284946Y-7426809D01*
X16408756Y-7426809D01*
X16637327Y-7493476D02*
X16637327Y-7293476D01*
X16723041Y-7493476D02*
X16723041Y-7388714D01*
X16713517Y-7369667D01*
X16694470Y-7360143D01*
X16665898Y-7360143D01*
X16646851Y-7369667D01*
X16637327Y-7379190D01*
X16846851Y-7493476D02*
X16827803Y-7483952D01*
X16818279Y-7474428D01*
X16808756Y-7455381D01*
X16808756Y-7398238D01*
X16818279Y-7379190D01*
X16827803Y-7369667D01*
X16846851Y-7360143D01*
X16875422Y-7360143D01*
X16894470Y-7369667D01*
X16903994Y-7379190D01*
X16913518Y-7398238D01*
X16913518Y-7455381D01*
X16903994Y-7474428D01*
X16894470Y-7483952D01*
X16875422Y-7493476D01*
X16846851Y-7493476D01*
X17027803Y-7493476D02*
X17008756Y-7483952D01*
X16999232Y-7464905D01*
X16999232Y-7293476D01*
X17180184Y-7483952D02*
X17161137Y-7493476D01*
X17123041Y-7493476D01*
X17103994Y-7483952D01*
X17094470Y-7464905D01*
X17094470Y-7388714D01*
X17103994Y-7369667D01*
X17123041Y-7360143D01*
X17161137Y-7360143D01*
X17180184Y-7369667D01*
X17189708Y-7388714D01*
X17189708Y-7407762D01*
X17094470Y-7426809D01*
X17265899Y-7483952D02*
X17284946Y-7493476D01*
X17323041Y-7493476D01*
X17342089Y-7483952D01*
X17351613Y-7464905D01*
X17351613Y-7455381D01*
X17342089Y-7436333D01*
X17323041Y-7426809D01*
X17294470Y-7426809D01*
X17275422Y-7417286D01*
X17265899Y-7398238D01*
X17265899Y-7388714D01*
X17275422Y-7369667D01*
X17294470Y-7360143D01*
X17323041Y-7360143D01*
X17342089Y-7369667D01*
X17418279Y-7569667D02*
X17427803Y-7560143D01*
X17446851Y-7531571D01*
X17456375Y-7512524D01*
X17465899Y-7483952D01*
X17475422Y-7436333D01*
X17475422Y-7398238D01*
X17465899Y-7350619D01*
X17456375Y-7322048D01*
X17446851Y-7303000D01*
X17427803Y-7274428D01*
X17418279Y-7264905D01*
X17780184Y-7569667D02*
X17770660Y-7560143D01*
X17751613Y-7531571D01*
X17742089Y-7512524D01*
X17732565Y-7483952D01*
X17723041Y-7436333D01*
X17723041Y-7398238D01*
X17732565Y-7350619D01*
X17742089Y-7322048D01*
X17751613Y-7303000D01*
X17770660Y-7274428D01*
X17780184Y-7264905D01*
X17856375Y-7360143D02*
X17856375Y-7493476D01*
X17856375Y-7379190D02*
X17865899Y-7369667D01*
X17884946Y-7360143D01*
X17913518Y-7360143D01*
X17932565Y-7369667D01*
X17942089Y-7388714D01*
X17942089Y-7493476D01*
X18065899Y-7493476D02*
X18046851Y-7483952D01*
X18037327Y-7474428D01*
X18027803Y-7455381D01*
X18027803Y-7398238D01*
X18037327Y-7379190D01*
X18046851Y-7369667D01*
X18065899Y-7360143D01*
X18094470Y-7360143D01*
X18113518Y-7369667D01*
X18123041Y-7379190D01*
X18132565Y-7398238D01*
X18132565Y-7455381D01*
X18123041Y-7474428D01*
X18113518Y-7483952D01*
X18094470Y-7493476D01*
X18065899Y-7493476D01*
X18189708Y-7360143D02*
X18265899Y-7360143D01*
X18218279Y-7293476D02*
X18218279Y-7464905D01*
X18227803Y-7483952D01*
X18246851Y-7493476D01*
X18265899Y-7493476D01*
X18484946Y-7360143D02*
X18484946Y-7560143D01*
X18484946Y-7369667D02*
X18503994Y-7360143D01*
X18542089Y-7360143D01*
X18561137Y-7369667D01*
X18570660Y-7379190D01*
X18580184Y-7398238D01*
X18580184Y-7455381D01*
X18570660Y-7474428D01*
X18561137Y-7483952D01*
X18542089Y-7493476D01*
X18503994Y-7493476D01*
X18484946Y-7483952D01*
X18694470Y-7493476D02*
X18675422Y-7483952D01*
X18665899Y-7464905D01*
X18665899Y-7293476D01*
X18856375Y-7493476D02*
X18856375Y-7388714D01*
X18846851Y-7369667D01*
X18827803Y-7360143D01*
X18789708Y-7360143D01*
X18770660Y-7369667D01*
X18856375Y-7483952D02*
X18837327Y-7493476D01*
X18789708Y-7493476D01*
X18770660Y-7483952D01*
X18761137Y-7464905D01*
X18761137Y-7445857D01*
X18770660Y-7426809D01*
X18789708Y-7417286D01*
X18837327Y-7417286D01*
X18856375Y-7407762D01*
X18923041Y-7360143D02*
X18999232Y-7360143D01*
X18951613Y-7293476D02*
X18951613Y-7464905D01*
X18961137Y-7483952D01*
X18980184Y-7493476D01*
X18999232Y-7493476D01*
X19142089Y-7483952D02*
X19123041Y-7493476D01*
X19084946Y-7493476D01*
X19065899Y-7483952D01*
X19056375Y-7464905D01*
X19056375Y-7388714D01*
X19065899Y-7369667D01*
X19084946Y-7360143D01*
X19123041Y-7360143D01*
X19142089Y-7369667D01*
X19151613Y-7388714D01*
X19151613Y-7407762D01*
X19056375Y-7426809D01*
X19323041Y-7493476D02*
X19323041Y-7293476D01*
X19323041Y-7483952D02*
X19303994Y-7493476D01*
X19265899Y-7493476D01*
X19246851Y-7483952D01*
X19237327Y-7474428D01*
X19227803Y-7455381D01*
X19227803Y-7398238D01*
X19237327Y-7379190D01*
X19246851Y-7369667D01*
X19265899Y-7360143D01*
X19303994Y-7360143D01*
X19323041Y-7369667D01*
X19399232Y-7569667D02*
X19408756Y-7560143D01*
X19427803Y-7531571D01*
X19437327Y-7512524D01*
X19446851Y-7483952D01*
X19456375Y-7436333D01*
X19456375Y-7398238D01*
X19446851Y-7350619D01*
X19437327Y-7322048D01*
X19427803Y-7303000D01*
X19408756Y-7274428D01*
X19399232Y-7264905D01*
M02*
