M48
; DRILL file {KiCad (6.0.5)} date Fri Jul  8 11:42:05 2022
; FORMAT={-:-/ absolute / metric / decimal}
; #@! TF.CreationDate,2022-07-08T11:42:05+02:00
; #@! TF.GenerationSoftware,Kicad,Pcbnew,(6.0.5)
; #@! TF.FileFunction,MixedPlating,1,2
FMAT,2
METRIC
; #@! TA.AperFunction,Plated,PTH,ViaDrill
T1C0.400
; #@! TA.AperFunction,Plated,PTH,ComponentDrill
T2C1.000
; #@! TA.AperFunction,NonPlated,NPTH,ComponentDrill
T3C2.200
%
G90
G05
T1
X137.6Y-56.05
X138.0Y-59.074
X140.4Y-58.7
X141.05Y-54.75
X141.5Y-59.0
X141.95Y-61.8
X142.421Y-55.14
X142.45Y-58.55
X143.75Y-58.25
X144.0Y-61.8
X145.5Y-61.8
X146.799Y-55.25
X146.799Y-55.25
X147.413Y-59.001
X148.183Y-55.892
X149.25Y-55.85
X151.15Y-56.25
T2
X128.7Y-35.35
X128.7Y-37.89
X128.7Y-40.43
X128.7Y-42.97
X128.7Y-45.51
X128.7Y-48.05
X128.7Y-50.59
X128.7Y-53.13
X128.7Y-55.67
X132.9Y-31.3
X135.44Y-31.3
X135.45Y-43.0
X135.45Y-45.5
X135.45Y-48.0
X135.45Y-50.6
X135.45Y-53.1
X135.475Y-38.0
X135.475Y-40.5
X137.98Y-31.3
X137.99Y-43.0
X137.99Y-45.5
X137.99Y-48.0
X137.99Y-50.6
X137.99Y-53.1
X138.015Y-38.0
X138.015Y-40.5
X140.52Y-31.3
X140.53Y-43.0
X140.53Y-45.5
X140.53Y-48.0
X140.53Y-50.6
X140.53Y-53.1
X140.555Y-38.0
X140.555Y-40.5
X143.06Y-31.3
X143.07Y-43.0
X143.07Y-45.5
X143.07Y-48.0
X143.07Y-50.6
X143.07Y-53.1
X143.095Y-38.0
X143.095Y-40.5
X145.6Y-31.3
X145.61Y-43.0
X145.61Y-45.5
X145.61Y-48.0
X145.61Y-50.6
X145.61Y-53.1
X145.635Y-38.0
X145.635Y-40.5
X148.14Y-31.3
X148.15Y-43.0
X148.15Y-45.5
X148.15Y-48.0
X148.15Y-50.6
X148.15Y-53.1
X148.175Y-38.0
X148.175Y-40.5
X150.68Y-31.3
X150.69Y-43.0
X150.69Y-45.5
X150.69Y-48.0
X150.69Y-50.6
X150.69Y-53.1
X150.715Y-38.0
X150.715Y-40.5
X153.22Y-31.3
X155.1Y-38.0
X155.1Y-40.54
X155.1Y-43.08
X155.1Y-45.62
X155.1Y-48.16
X155.1Y-50.7
X155.1Y-53.24
X157.7Y-38.0
X157.7Y-40.54
X157.7Y-43.08
X157.7Y-45.62
X157.7Y-48.16
X157.7Y-50.7
X157.7Y-53.24
T3
X128.52Y-31.104
X128.52Y-60.104
X157.52Y-31.104
X157.52Y-60.104
T0
M30
