G04 #@! TF.GenerationSoftware,KiCad,Pcbnew,(6.0.5)*
G04 #@! TF.CreationDate,2022-07-08T11:37:31+02:00*
G04 #@! TF.ProjectId,MovuinoProtoShield_v2.0,4d6f7675-696e-46f5-9072-6f746f536869,rev?*
G04 #@! TF.SameCoordinates,Original*
G04 #@! TF.FileFunction,Copper,L2,Bot*
G04 #@! TF.FilePolarity,Positive*
%FSLAX46Y46*%
G04 Gerber Fmt 4.6, Leading zero omitted, Abs format (unit mm)*
G04 Created by KiCad (PCBNEW (6.0.5)) date 2022-07-08 11:37:31*
%MOMM*%
%LPD*%
G01*
G04 APERTURE LIST*
G04 #@! TA.AperFunction,ComponentPad*
%ADD10C,1.700000*%
G04 #@! TD*
G04 #@! TA.AperFunction,ComponentPad*
%ADD11O,1.700000X1.700000*%
G04 #@! TD*
G04 #@! TA.AperFunction,SMDPad,CuDef*
%ADD12R,0.300000X1.600000*%
G04 #@! TD*
G04 #@! TA.AperFunction,SMDPad,CuDef*
%ADD13R,0.800000X1.800000*%
G04 #@! TD*
G04 #@! TA.AperFunction,ViaPad*
%ADD14C,0.800000*%
G04 #@! TD*
G04 #@! TA.AperFunction,Conductor*
%ADD15C,0.200000*%
G04 #@! TD*
G04 #@! TA.AperFunction,Conductor*
%ADD16C,0.250000*%
G04 #@! TD*
G04 APERTURE END LIST*
D10*
G04 #@! TO.P,REF\u002A\u002A,1*
G04 #@! TO.N,+3V3*
X157700000Y-38000000D03*
D11*
G04 #@! TO.P,REF\u002A\u002A,2*
X157700000Y-40540000D03*
G04 #@! TO.P,REF\u002A\u002A,3*
X157700000Y-43080000D03*
G04 #@! TO.P,REF\u002A\u002A,4*
X157700000Y-45620000D03*
G04 #@! TO.P,REF\u002A\u002A,5*
X157700000Y-48160000D03*
G04 #@! TO.P,REF\u002A\u002A,6*
X157700000Y-50700000D03*
G04 #@! TO.P,REF\u002A\u002A,7*
X157700000Y-53240000D03*
G04 #@! TD*
D10*
G04 #@! TO.P,REF\u002A\u002A,1*
G04 #@! TO.N,N/C*
X135450000Y-43000000D03*
D11*
G04 #@! TO.P,REF\u002A\u002A,2*
X137990000Y-43000000D03*
G04 #@! TO.P,REF\u002A\u002A,3*
X140530000Y-43000000D03*
G04 #@! TO.P,REF\u002A\u002A,4*
X143070000Y-43000000D03*
G04 #@! TO.P,REF\u002A\u002A,5*
X145610000Y-43000000D03*
G04 #@! TO.P,REF\u002A\u002A,6*
X148150000Y-43000000D03*
G04 #@! TO.P,REF\u002A\u002A,7*
X150690000Y-43000000D03*
G04 #@! TD*
D10*
G04 #@! TO.P,REF\u002A\u002A,1*
G04 #@! TO.N,N/C*
X135475000Y-40500000D03*
D11*
G04 #@! TO.P,REF\u002A\u002A,2*
X138015000Y-40500000D03*
G04 #@! TO.P,REF\u002A\u002A,3*
X140555000Y-40500000D03*
G04 #@! TO.P,REF\u002A\u002A,4*
X143095000Y-40500000D03*
G04 #@! TO.P,REF\u002A\u002A,5*
X145635000Y-40500000D03*
G04 #@! TO.P,REF\u002A\u002A,6*
X148175000Y-40500000D03*
G04 #@! TO.P,REF\u002A\u002A,7*
X150715000Y-40500000D03*
G04 #@! TD*
D10*
G04 #@! TO.P,REF\u002A\u002A,1*
G04 #@! TO.N,N/C*
X135450000Y-53100000D03*
D11*
G04 #@! TO.P,REF\u002A\u002A,2*
X137990000Y-53100000D03*
G04 #@! TO.P,REF\u002A\u002A,3*
X140530000Y-53100000D03*
G04 #@! TO.P,REF\u002A\u002A,4*
X143070000Y-53100000D03*
G04 #@! TO.P,REF\u002A\u002A,5*
X145610000Y-53100000D03*
G04 #@! TO.P,REF\u002A\u002A,6*
X148150000Y-53100000D03*
G04 #@! TO.P,REF\u002A\u002A,7*
X150690000Y-53100000D03*
G04 #@! TD*
D10*
G04 #@! TO.P,REF\u002A\u002A,1*
G04 #@! TO.N,GND*
X155100000Y-38000000D03*
D11*
G04 #@! TO.P,REF\u002A\u002A,2*
X155100000Y-40540000D03*
G04 #@! TO.P,REF\u002A\u002A,3*
X155100000Y-43080000D03*
G04 #@! TO.P,REF\u002A\u002A,4*
X155100000Y-45620000D03*
G04 #@! TO.P,REF\u002A\u002A,5*
X155100000Y-48160000D03*
G04 #@! TO.P,REF\u002A\u002A,6*
X155100000Y-50700000D03*
G04 #@! TO.P,REF\u002A\u002A,7*
X155100000Y-53240000D03*
G04 #@! TD*
D10*
G04 #@! TO.P,REF\u002A\u002A,1*
G04 #@! TO.N,ADC1.1*
X128700000Y-35350000D03*
D11*
G04 #@! TO.P,REF\u002A\u002A,2*
G04 #@! TO.N,ADC1.2*
X128700000Y-37890000D03*
G04 #@! TO.P,REF\u002A\u002A,3*
G04 #@! TO.N,ADC1.3*
X128700000Y-40430000D03*
G04 #@! TO.P,REF\u002A\u002A,4*
G04 #@! TO.N,ADC1.4T*
X128700000Y-42970000D03*
G04 #@! TO.P,REF\u002A\u002A,5*
G04 #@! TO.N,ADC1.5T*
X128700000Y-45510000D03*
G04 #@! TO.P,REF\u002A\u002A,6*
G04 #@! TO.N,ADC1.6*
X128700000Y-48050000D03*
G04 #@! TO.P,REF\u002A\u002A,7*
G04 #@! TO.N,ADC1.7*
X128700000Y-50590000D03*
G04 #@! TO.P,REF\u002A\u002A,8*
G04 #@! TO.N,GPIO2*
X128700000Y-53130000D03*
G04 #@! TO.P,REF\u002A\u002A,9*
G04 #@! TO.N,+5V*
X128700000Y-55670000D03*
G04 #@! TD*
D10*
G04 #@! TO.P,REF\u002A\u002A,1*
G04 #@! TO.N,N/C*
X135450000Y-45500000D03*
D11*
G04 #@! TO.P,REF\u002A\u002A,2*
X137990000Y-45500000D03*
G04 #@! TO.P,REF\u002A\u002A,3*
X140530000Y-45500000D03*
G04 #@! TO.P,REF\u002A\u002A,4*
X143070000Y-45500000D03*
G04 #@! TO.P,REF\u002A\u002A,5*
X145610000Y-45500000D03*
G04 #@! TO.P,REF\u002A\u002A,6*
X148150000Y-45500000D03*
G04 #@! TO.P,REF\u002A\u002A,7*
X150690000Y-45500000D03*
G04 #@! TD*
D10*
G04 #@! TO.P,REF\u002A\u002A,1*
G04 #@! TO.N,N/C*
X135450000Y-50600000D03*
D11*
G04 #@! TO.P,REF\u002A\u002A,2*
X137990000Y-50600000D03*
G04 #@! TO.P,REF\u002A\u002A,3*
X140530000Y-50600000D03*
G04 #@! TO.P,REF\u002A\u002A,4*
X143070000Y-50600000D03*
G04 #@! TO.P,REF\u002A\u002A,5*
X145610000Y-50600000D03*
G04 #@! TO.P,REF\u002A\u002A,6*
X148150000Y-50600000D03*
G04 #@! TO.P,REF\u002A\u002A,7*
X150690000Y-50600000D03*
G04 #@! TD*
D10*
G04 #@! TO.P,REF\u002A\u002A,1*
G04 #@! TO.N,N/C*
X135450000Y-48000000D03*
D11*
G04 #@! TO.P,REF\u002A\u002A,2*
X137990000Y-48000000D03*
G04 #@! TO.P,REF\u002A\u002A,3*
X140530000Y-48000000D03*
G04 #@! TO.P,REF\u002A\u002A,4*
X143070000Y-48000000D03*
G04 #@! TO.P,REF\u002A\u002A,5*
X145610000Y-48000000D03*
G04 #@! TO.P,REF\u002A\u002A,6*
X148150000Y-48000000D03*
G04 #@! TO.P,REF\u002A\u002A,7*
X150690000Y-48000000D03*
G04 #@! TD*
D10*
G04 #@! TO.P,REF\u002A\u002A,1*
G04 #@! TO.N,PB*
X132900000Y-31300000D03*
D11*
G04 #@! TO.P,REF\u002A\u002A,2*
G04 #@! TO.N,RESET*
X135440000Y-31300000D03*
G04 #@! TO.P,REF\u002A\u002A,3*
G04 #@! TO.N,RXD*
X137980000Y-31300000D03*
G04 #@! TO.P,REF\u002A\u002A,4*
G04 #@! TO.N,TXD*
X140520000Y-31300000D03*
G04 #@! TO.P,REF\u002A\u002A,5*
G04 #@! TO.N,SCL*
X143060000Y-31300000D03*
G04 #@! TO.P,REF\u002A\u002A,6*
G04 #@! TO.N,SDA*
X145600000Y-31300000D03*
G04 #@! TO.P,REF\u002A\u002A,7*
G04 #@! TO.N,SCK*
X148140000Y-31300000D03*
G04 #@! TO.P,REF\u002A\u002A,8*
G04 #@! TO.N,MOSI*
X150680000Y-31300000D03*
G04 #@! TO.P,REF\u002A\u002A,9*
G04 #@! TO.N,MISO*
X153220000Y-31300000D03*
G04 #@! TD*
D10*
G04 #@! TO.P,REF\u002A\u002A,1*
G04 #@! TO.N,N/C*
X135475000Y-38000000D03*
D11*
G04 #@! TO.P,REF\u002A\u002A,2*
X138015000Y-38000000D03*
G04 #@! TO.P,REF\u002A\u002A,3*
X140555000Y-38000000D03*
G04 #@! TO.P,REF\u002A\u002A,4*
X143095000Y-38000000D03*
G04 #@! TO.P,REF\u002A\u002A,5*
X145635000Y-38000000D03*
G04 #@! TO.P,REF\u002A\u002A,6*
X148175000Y-38000000D03*
G04 #@! TO.P,REF\u002A\u002A,7*
X150715000Y-38000000D03*
G04 #@! TD*
D12*
G04 #@! TO.P,J1,1,1*
G04 #@! TO.N,unconnected-(J1-Pad1)*
X138750000Y-56800000D03*
G04 #@! TO.P,J1,2,2*
G04 #@! TO.N,+5V*
X138750000Y-60400000D03*
G04 #@! TO.P,J1,3,3*
G04 #@! TO.N,ADC1.2*
X139250000Y-56800000D03*
G04 #@! TO.P,J1,4,4*
G04 #@! TO.N,unconnected-(J1-Pad4)*
X139250000Y-60400000D03*
G04 #@! TO.P,J1,5,5*
G04 #@! TO.N,ADC1.3*
X139750000Y-56800000D03*
G04 #@! TO.P,J1,6,6*
G04 #@! TO.N,unconnected-(J1-Pad6)*
X139750000Y-60400000D03*
G04 #@! TO.P,J1,7,7*
G04 #@! TO.N,ADC1.6*
X140250000Y-56800000D03*
G04 #@! TO.P,J1,8,8*
G04 #@! TO.N,unconnected-(J1-Pad8)*
X140250000Y-60400000D03*
G04 #@! TO.P,J1,9,9*
G04 #@! TO.N,ADC1.1*
X140750000Y-56800000D03*
G04 #@! TO.P,J1,10,10*
G04 #@! TO.N,PB*
X140750000Y-60400000D03*
G04 #@! TO.P,J1,11,11*
G04 #@! TO.N,ADC1.7*
X141250000Y-56800000D03*
G04 #@! TO.P,J1,12,12*
G04 #@! TO.N,RESET*
X141250000Y-60400000D03*
G04 #@! TO.P,J1,13,13*
G04 #@! TO.N,ADC1.4T*
X141750000Y-56800000D03*
G04 #@! TO.P,J1,14,14*
G04 #@! TO.N,unconnected-(J1-Pad14)*
X141750000Y-60400000D03*
G04 #@! TO.P,J1,15,15*
G04 #@! TO.N,ADC1.5T*
X142250000Y-56800000D03*
G04 #@! TO.P,J1,16,16*
G04 #@! TO.N,RXD*
X142250000Y-60400000D03*
G04 #@! TO.P,J1,17,17*
G04 #@! TO.N,unconnected-(J1-Pad17)*
X142750000Y-56800000D03*
G04 #@! TO.P,J1,18,18*
G04 #@! TO.N,TXD*
X142750000Y-60400000D03*
G04 #@! TO.P,J1,19,19*
G04 #@! TO.N,unconnected-(J1-Pad19)*
X143250000Y-56800000D03*
G04 #@! TO.P,J1,20,20*
G04 #@! TO.N,SCK*
X143250000Y-60400000D03*
G04 #@! TO.P,J1,21,21*
G04 #@! TO.N,unconnected-(J1-Pad21)*
X143750000Y-56800000D03*
G04 #@! TO.P,J1,22,22*
G04 #@! TO.N,MOSI*
X143750000Y-60400000D03*
G04 #@! TO.P,J1,23,23*
G04 #@! TO.N,unconnected-(J1-Pad23)*
X144250000Y-56800000D03*
G04 #@! TO.P,J1,24,24*
G04 #@! TO.N,MISO*
X144250000Y-60400000D03*
G04 #@! TO.P,J1,25,25*
G04 #@! TO.N,unconnected-(J1-Pad25)*
X144750000Y-56800000D03*
G04 #@! TO.P,J1,26,26*
G04 #@! TO.N,SDA*
X144750000Y-60400000D03*
G04 #@! TO.P,J1,27,27*
G04 #@! TO.N,unconnected-(J1-Pad27)*
X145250000Y-56800000D03*
G04 #@! TO.P,J1,28,28*
G04 #@! TO.N,SCL*
X145250000Y-60400000D03*
G04 #@! TO.P,J1,29,29*
G04 #@! TO.N,unconnected-(J1-Pad29)*
X145750000Y-56800000D03*
G04 #@! TO.P,J1,30,30*
G04 #@! TO.N,+3V3*
X145750000Y-60400000D03*
G04 #@! TO.P,J1,31,31*
G04 #@! TO.N,unconnected-(J1-Pad31)*
X146250000Y-56800000D03*
G04 #@! TO.P,J1,32,32*
G04 #@! TO.N,+3V3*
X146250000Y-60400000D03*
G04 #@! TO.P,J1,33,33*
G04 #@! TO.N,unconnected-(J1-Pad33)*
X146750000Y-56800000D03*
G04 #@! TO.P,J1,34,34*
G04 #@! TO.N,GND*
X146750000Y-60400000D03*
G04 #@! TO.P,J1,35,35*
G04 #@! TO.N,GPIO2*
X147250000Y-56800000D03*
G04 #@! TO.P,J1,36,36*
G04 #@! TO.N,GND*
X147250000Y-60400000D03*
D13*
G04 #@! TO.P,J1,MP1,MP1*
G04 #@! TO.N,unconnected-(J1-PadMP1)*
X137000000Y-58600000D03*
G04 #@! TO.P,J1,MP2,MP2*
G04 #@! TO.N,unconnected-(J1-PadMP2)*
X149000000Y-58600000D03*
G04 #@! TD*
D14*
G04 #@! TO.N,SCL*
X145500000Y-61800000D03*
G04 #@! TO.N,SDA*
X147413183Y-59000644D03*
G04 #@! TO.N,MISO*
X144000000Y-61800000D03*
G04 #@! TO.N,SCK*
X141950000Y-61800000D03*
G04 #@! TO.N,TXD*
X143750000Y-58250000D03*
X151150000Y-56250000D03*
G04 #@! TO.N,ADC1.5T*
X142421466Y-55140363D03*
G04 #@! TO.N,RXD*
X142450000Y-58550000D03*
X149250000Y-55850000D03*
G04 #@! TO.N,ADC1.4T*
X141050000Y-54750000D03*
G04 #@! TO.N,ADC1.7*
X140400000Y-58700000D03*
G04 #@! TO.N,RESET*
X148182981Y-55892420D03*
X141500000Y-59000000D03*
G04 #@! TO.N,ADC1.6*
X137600000Y-56050000D03*
G04 #@! TO.N,ADC1.3*
X137999502Y-59074020D03*
G04 #@! TO.N,GPIO2*
X146799022Y-55250000D03*
X146799022Y-55250000D03*
G04 #@! TD*
D15*
G04 #@! TO.N,GND*
X155100000Y-49500000D02*
X155100000Y-38000000D01*
X155100000Y-49500000D02*
X155100000Y-53240000D01*
D16*
X154500000Y-60400000D02*
X155100000Y-59800000D01*
D15*
X155100000Y-50700000D02*
X155100000Y-49500000D01*
D16*
X146750000Y-60400000D02*
X147250000Y-60400000D01*
X147250000Y-60400000D02*
X154500000Y-60400000D01*
X155100000Y-59800000D02*
X155100000Y-53240000D01*
G04 #@! TO.N,+3V3*
X155549520Y-60086198D02*
X155549520Y-56600480D01*
D15*
X157700000Y-38000000D02*
X157700000Y-53240000D01*
D16*
X146250000Y-61499022D02*
X146400000Y-61649022D01*
X146250000Y-60400000D02*
X146250000Y-61499022D01*
X145750000Y-60400000D02*
X146250000Y-60400000D01*
X146400000Y-61649022D02*
X146400000Y-61650000D01*
X146400000Y-61650000D02*
X153985718Y-61650000D01*
X157700000Y-54450000D02*
X157700000Y-53240000D01*
X155549520Y-56600480D02*
X157700000Y-54450000D01*
X153985718Y-61650000D02*
X155549520Y-60086198D01*
G04 #@! TO.N,SCL*
X145250000Y-61550000D02*
X145250000Y-60400000D01*
X145500000Y-61800000D02*
X145250000Y-61550000D01*
G04 #@! TO.N,SDA*
X144750000Y-60400000D02*
X144750000Y-59450000D01*
X145200000Y-59000000D02*
X147412539Y-59000000D01*
X147412539Y-59000000D02*
X147413183Y-59000644D01*
X144750000Y-59450000D02*
X145200000Y-59000000D01*
G04 #@! TO.N,MISO*
X144250000Y-61550000D02*
X144250000Y-60400000D01*
X144000000Y-61800000D02*
X144250000Y-61550000D01*
G04 #@! TO.N,MOSI*
X148275489Y-57974511D02*
X148275489Y-57524511D01*
D15*
X150700000Y-32075481D02*
X150700000Y-31320000D01*
D16*
X151350000Y-33150000D02*
X150700000Y-32500000D01*
X150700000Y-31320000D02*
X150680000Y-31300000D01*
X150700000Y-32500000D02*
X150700000Y-31320000D01*
X153600000Y-55800000D02*
X153600000Y-34200000D01*
X152050000Y-57350000D02*
X153600000Y-55800000D01*
X148450000Y-57350000D02*
X152050000Y-57350000D01*
X143750000Y-59400000D02*
X144873867Y-58276133D01*
X153600000Y-34200000D02*
X152550000Y-33150000D01*
X144873867Y-58276133D02*
X147973867Y-58276133D01*
X143750000Y-60400000D02*
X143750000Y-59400000D01*
X148275489Y-57524511D02*
X148450000Y-57350000D01*
X152550000Y-33150000D02*
X151350000Y-33150000D01*
X147973867Y-58276133D02*
X148275489Y-57974511D01*
G04 #@! TO.N,SCK*
X143250000Y-61550000D02*
X143250000Y-61250000D01*
X143250000Y-60400000D02*
X143250000Y-61250000D01*
X143250000Y-61250000D02*
X143250000Y-61400000D01*
D15*
X143250000Y-61550000D02*
X143250000Y-61400000D01*
D16*
X142950480Y-61849520D02*
X143250000Y-61550000D01*
X141950000Y-61800000D02*
X141999520Y-61849520D01*
X141999520Y-61849520D02*
X142950480Y-61849520D01*
G04 #@! TO.N,TXD*
X141500000Y-33650000D02*
X140520000Y-32670000D01*
X142750000Y-60400000D02*
X142750000Y-59274614D01*
X151900000Y-55500000D02*
X152600000Y-55500000D01*
X151150000Y-56250000D02*
X151900000Y-55500000D01*
X143750000Y-58274614D02*
X143750000Y-58250000D01*
X152600000Y-55500000D02*
X153150480Y-54949520D01*
D15*
X140520000Y-31300000D02*
X140520000Y-32270000D01*
D16*
X140520000Y-32670000D02*
X140520000Y-31300000D01*
X152050480Y-33650000D02*
X141500000Y-33650000D01*
X142750000Y-59274614D02*
X143750000Y-58274614D01*
X153150480Y-34750000D02*
X152050480Y-33650000D01*
X153150480Y-54949520D02*
X153150480Y-34750000D01*
G04 #@! TO.N,ADC1.5T*
X142250000Y-56800000D02*
X142250000Y-55311829D01*
X142250000Y-55311829D02*
X142421466Y-55140363D01*
G04 #@! TO.N,RXD*
X142250000Y-60400000D02*
X142250000Y-58750000D01*
X139650000Y-34150000D02*
X137980000Y-32480000D01*
D15*
X137980000Y-31300000D02*
X137980000Y-32080000D01*
X137980000Y-32080000D02*
X138000000Y-32100000D01*
X138000000Y-32100000D02*
X138000000Y-32125481D01*
D16*
X150300000Y-54800000D02*
X151850000Y-54800000D01*
X137980000Y-32480000D02*
X137980000Y-31300000D01*
X152650000Y-35000000D02*
X151800000Y-34150000D01*
X151850000Y-54800000D02*
X152650000Y-54000000D01*
X149250000Y-55850000D02*
X150300000Y-54800000D01*
X151800000Y-34150000D02*
X139650000Y-34150000D01*
X152650000Y-54000000D02*
X152650000Y-35000000D01*
X142250000Y-58750000D02*
X142450000Y-58550000D01*
G04 #@! TO.N,ADC1.4T*
X141050000Y-54750000D02*
X141742847Y-55442847D01*
X141750000Y-55442847D02*
X141750000Y-56800000D01*
G04 #@! TO.N,ADC1.7*
X140400000Y-58700000D02*
X141250000Y-57850000D01*
X141250000Y-56800000D02*
X141250000Y-57850000D01*
G04 #@! TO.N,RESET*
X151600000Y-34599520D02*
X137349520Y-34599520D01*
X152200480Y-53799520D02*
X152200480Y-35200000D01*
D15*
X135440000Y-32240000D02*
X135450000Y-32250000D01*
D16*
X135440000Y-32690000D02*
X135440000Y-31300000D01*
X137349520Y-34599520D02*
X135700000Y-32950000D01*
D15*
X135440000Y-31300000D02*
X135440000Y-32240000D01*
D16*
X137349520Y-34599520D02*
X135440000Y-32690000D01*
X141250000Y-59250000D02*
X141500000Y-59000000D01*
X149800890Y-54274511D02*
X151725489Y-54274511D01*
D15*
X135440000Y-32690000D02*
X135700000Y-32950000D01*
D16*
X152200480Y-35200000D02*
X151600000Y-34599520D01*
X141250000Y-60400000D02*
X141250000Y-59250000D01*
X151725489Y-54274511D02*
X152200480Y-53799520D01*
X148182981Y-55892420D02*
X149800890Y-54274511D01*
X135700000Y-32950000D02*
X135500000Y-32750000D01*
G04 #@! TO.N,ADC1.1*
X133600000Y-54735717D02*
X133600000Y-35950000D01*
X140235718Y-55200000D02*
X134064283Y-55200000D01*
X133600000Y-35950000D02*
X133000000Y-35350000D01*
X134064283Y-55200000D02*
X133600000Y-54735717D01*
X133000000Y-35350000D02*
X128700000Y-35350000D01*
X140750000Y-56800000D02*
X140750000Y-55714282D01*
X140750000Y-55714282D02*
X140235718Y-55200000D01*
G04 #@! TO.N,PB*
X140750000Y-61400000D02*
X140750000Y-60400000D01*
X138049520Y-61949520D02*
X140200480Y-61949520D01*
X130500000Y-31300000D02*
X128600000Y-33200000D01*
X126900000Y-33400000D02*
X126900000Y-57950000D01*
X132900000Y-31300000D02*
X130500000Y-31300000D01*
X127100000Y-33200000D02*
X126900000Y-33400000D01*
X130750000Y-61450000D02*
X137550000Y-61450000D01*
X129130768Y-58629693D02*
X130050000Y-59548925D01*
X128600000Y-33200000D02*
X127100000Y-33200000D01*
X130050000Y-60750000D02*
X130750000Y-61450000D01*
X127620307Y-58629693D02*
X129130768Y-58629693D01*
X130050000Y-59548925D02*
X130050000Y-60750000D01*
X140200480Y-61949520D02*
X140750000Y-61400000D01*
X127600000Y-58650000D02*
X127620307Y-58629693D01*
X126900000Y-57950000D02*
X127600000Y-58650000D01*
X137550000Y-61450000D02*
X138049520Y-61949520D01*
G04 #@! TO.N,ADC1.6*
X138274511Y-55675489D02*
X140075489Y-55675489D01*
X140250000Y-55850000D02*
X140250000Y-56800000D01*
X137600000Y-56050000D02*
X137900000Y-56050000D01*
X140075489Y-55675489D02*
X140250000Y-55850000D01*
X137900000Y-56050000D02*
X138274511Y-55675489D01*
G04 #@! TO.N,ADC1.3*
X139750000Y-58034740D02*
X139750000Y-56800000D01*
X139410709Y-58374031D02*
X139750000Y-58034740D01*
X137999502Y-59074020D02*
X138699491Y-58374031D01*
X138699491Y-58374031D02*
X139410709Y-58374031D01*
G04 #@! TO.N,ADC1.2*
X139224511Y-57924511D02*
X139250000Y-57899022D01*
X137000000Y-56800000D02*
X138124511Y-57924511D01*
X133150000Y-38350000D02*
X133150000Y-55000000D01*
X138124511Y-57924511D02*
X139224511Y-57924511D01*
X134950000Y-56800000D02*
X137000000Y-56800000D01*
X133150000Y-55000000D02*
X134950000Y-56800000D01*
X139250000Y-57899022D02*
X139250000Y-56800000D01*
X128700000Y-37890000D02*
X132690000Y-37890000D01*
X132690000Y-37890000D02*
X133150000Y-38350000D01*
G04 #@! TO.N,+5V*
X137750000Y-60850000D02*
X137300978Y-60850000D01*
X131720000Y-55670000D02*
X128700000Y-55670000D01*
X131800000Y-55750000D02*
X131720000Y-55670000D01*
X138750000Y-60400000D02*
X138750000Y-61350000D01*
X138750000Y-61350000D02*
X138600000Y-61500000D01*
X137300978Y-60850000D02*
X136400978Y-59950000D01*
X136400978Y-59950000D02*
X136000000Y-59950000D01*
X138600000Y-61500000D02*
X138400000Y-61500000D01*
X136000000Y-59950000D02*
X131800000Y-55750000D01*
X138400000Y-61500000D02*
X137750000Y-60850000D01*
G04 #@! TO.N,GPIO2*
X147250000Y-56800000D02*
X147250000Y-55700978D01*
X147250000Y-55700978D02*
X146799022Y-55250000D01*
G04 #@! TD*
G04 #@! TA.AperFunction,Conductor*
G04 #@! TO.N,GND*
G36*
X155296121Y-40306002D02*
G01*
X155342614Y-40359658D01*
X155354000Y-40412000D01*
X155354000Y-54558517D01*
X155358064Y-54572359D01*
X155371478Y-54574393D01*
X155378184Y-54573534D01*
X155388262Y-54571392D01*
X155592255Y-54510191D01*
X155601842Y-54506433D01*
X155793095Y-54412739D01*
X155801945Y-54407464D01*
X155975328Y-54283792D01*
X155983200Y-54277139D01*
X156134043Y-54126820D01*
X156142402Y-54116998D01*
X156201784Y-54078084D01*
X156272778Y-54077451D01*
X156332844Y-54115301D01*
X156362911Y-54179617D01*
X156364358Y-54198908D01*
X156363091Y-54839064D01*
X156342954Y-54907145D01*
X156326187Y-54927908D01*
X155157267Y-56096828D01*
X155148981Y-56104368D01*
X155142502Y-56108480D01*
X155137077Y-56114257D01*
X155095877Y-56158131D01*
X155093122Y-56160973D01*
X155073385Y-56180710D01*
X155070905Y-56183907D01*
X155063202Y-56192927D01*
X155032934Y-56225159D01*
X155029115Y-56232105D01*
X155029113Y-56232108D01*
X155023172Y-56242914D01*
X155012321Y-56259433D01*
X154999906Y-56275439D01*
X154996761Y-56282708D01*
X154996758Y-56282712D01*
X154982346Y-56316017D01*
X154977129Y-56326667D01*
X154955825Y-56365420D01*
X154953854Y-56373095D01*
X154953854Y-56373096D01*
X154950787Y-56385042D01*
X154944383Y-56403746D01*
X154936339Y-56422335D01*
X154935100Y-56430158D01*
X154935097Y-56430168D01*
X154929421Y-56466004D01*
X154927015Y-56477624D01*
X154916020Y-56520450D01*
X154916020Y-56540704D01*
X154914469Y-56560414D01*
X154911300Y-56580423D01*
X154912046Y-56588315D01*
X154915461Y-56624441D01*
X154916020Y-56636299D01*
X154916020Y-59771604D01*
X154896018Y-59839725D01*
X154879115Y-59860699D01*
X153760218Y-60979595D01*
X153697906Y-61013621D01*
X153671123Y-61016500D01*
X148034000Y-61016500D01*
X147965879Y-60996498D01*
X147919386Y-60942842D01*
X147908000Y-60890500D01*
X147908000Y-60568115D01*
X147903525Y-60552876D01*
X147902135Y-60551671D01*
X147894452Y-60550000D01*
X147034500Y-60550000D01*
X146966379Y-60529998D01*
X146919886Y-60476342D01*
X146908500Y-60424000D01*
X146908500Y-60376000D01*
X146928502Y-60307879D01*
X146982158Y-60261386D01*
X147034500Y-60250000D01*
X147889884Y-60250000D01*
X147905123Y-60245525D01*
X147906328Y-60244135D01*
X147907999Y-60236452D01*
X147907999Y-59828307D01*
X147928001Y-59760186D01*
X147959938Y-59726371D01*
X147972719Y-59717085D01*
X148039586Y-59693227D01*
X148108738Y-59709307D01*
X148147237Y-59748315D01*
X148149385Y-59746705D01*
X148236739Y-59863261D01*
X148353295Y-59950615D01*
X148489684Y-60001745D01*
X148551866Y-60008500D01*
X149448134Y-60008500D01*
X149510316Y-60001745D01*
X149646705Y-59950615D01*
X149763261Y-59863261D01*
X149850615Y-59746705D01*
X149901745Y-59610316D01*
X149902598Y-59602460D01*
X149903931Y-59596855D01*
X149939148Y-59535208D01*
X150002102Y-59502387D01*
X150026514Y-59500000D01*
X153800000Y-59500000D01*
X153800000Y-56548095D01*
X153820002Y-56479974D01*
X153836905Y-56459000D01*
X153992253Y-56303652D01*
X154000539Y-56296112D01*
X154007018Y-56292000D01*
X154053644Y-56242348D01*
X154056398Y-56239507D01*
X154076135Y-56219770D01*
X154078615Y-56216573D01*
X154086320Y-56207551D01*
X154111159Y-56181100D01*
X154116586Y-56175321D01*
X154120405Y-56168375D01*
X154120407Y-56168372D01*
X154126348Y-56157566D01*
X154137199Y-56141047D01*
X154137559Y-56140583D01*
X154149614Y-56125041D01*
X154152759Y-56117772D01*
X154152762Y-56117768D01*
X154167174Y-56084463D01*
X154172391Y-56073813D01*
X154193695Y-56035060D01*
X154198733Y-56015437D01*
X154205137Y-55996734D01*
X154210033Y-55985420D01*
X154210033Y-55985419D01*
X154213181Y-55978145D01*
X154214420Y-55970322D01*
X154214423Y-55970312D01*
X154220099Y-55934476D01*
X154222505Y-55922856D01*
X154231528Y-55887711D01*
X154231528Y-55887710D01*
X154233500Y-55880030D01*
X154233500Y-55859776D01*
X154235051Y-55840065D01*
X154236980Y-55827886D01*
X154238220Y-55820057D01*
X154234059Y-55776038D01*
X154233500Y-55764181D01*
X154233500Y-54526165D01*
X154253502Y-54458044D01*
X154307158Y-54411551D01*
X154377432Y-54401447D01*
X154423071Y-54417377D01*
X154506761Y-54466282D01*
X154516042Y-54470729D01*
X154715001Y-54546703D01*
X154724899Y-54549579D01*
X154828250Y-54570606D01*
X154842299Y-54569410D01*
X154846000Y-54559065D01*
X154846000Y-40412000D01*
X154866002Y-40343879D01*
X154919658Y-40297386D01*
X154972000Y-40286000D01*
X155228000Y-40286000D01*
X155296121Y-40306002D01*
G37*
G04 #@! TD.AperFunction*
G04 #@! TA.AperFunction,Conductor*
G36*
X156341871Y-36220002D02*
G01*
X156388364Y-36273658D01*
X156399750Y-36326250D01*
X156398176Y-37121038D01*
X156378039Y-37189119D01*
X156324291Y-37235505D01*
X156254620Y-37245559D01*
X156223995Y-37241250D01*
X156212812Y-37246398D01*
X155472022Y-37987188D01*
X155464408Y-38001132D01*
X155464539Y-38002965D01*
X155468790Y-38009580D01*
X156210474Y-38751264D01*
X156224418Y-38758878D01*
X156255461Y-38756658D01*
X156258482Y-38755498D01*
X156327999Y-38769916D01*
X156378686Y-38819628D01*
X156394690Y-38881333D01*
X156393232Y-39617901D01*
X156373095Y-39685982D01*
X156319347Y-39732369D01*
X156249053Y-39742334D01*
X156184531Y-39712713D01*
X156174039Y-39702452D01*
X156032806Y-39547240D01*
X156025273Y-39540215D01*
X155858139Y-39408222D01*
X155849557Y-39402520D01*
X155812116Y-39381852D01*
X155762145Y-39331420D01*
X155747373Y-39261977D01*
X155772489Y-39195572D01*
X155799840Y-39168965D01*
X155849247Y-39133723D01*
X155857648Y-39123023D01*
X155850660Y-39109870D01*
X154829885Y-38089095D01*
X154795859Y-38026783D01*
X154800924Y-37955968D01*
X154829885Y-37910905D01*
X155853389Y-36887401D01*
X155860410Y-36874544D01*
X155853611Y-36865213D01*
X155849554Y-36862518D01*
X155663117Y-36759599D01*
X155653705Y-36755369D01*
X155452959Y-36684280D01*
X155442989Y-36681646D01*
X155233327Y-36644301D01*
X155223073Y-36643331D01*
X155010116Y-36640728D01*
X154999832Y-36641448D01*
X154789321Y-36673661D01*
X154779293Y-36676050D01*
X154576868Y-36742212D01*
X154567359Y-36746209D01*
X154417680Y-36824127D01*
X154348021Y-36837840D01*
X154282006Y-36811715D01*
X154240594Y-36754047D01*
X154233500Y-36712364D01*
X154233500Y-36326000D01*
X154253502Y-36257879D01*
X154307158Y-36211386D01*
X154359500Y-36200000D01*
X156273750Y-36200000D01*
X156341871Y-36220002D01*
G37*
G04 #@! TD.AperFunction*
G04 #@! TD*
M02*
