G04 #@! TF.GenerationSoftware,KiCad,Pcbnew,(6.0.5)*
G04 #@! TF.CreationDate,2022-07-08T11:37:31+02:00*
G04 #@! TF.ProjectId,MovuinoProtoShield_v2.0,4d6f7675-696e-46f5-9072-6f746f536869,rev?*
G04 #@! TF.SameCoordinates,Original*
G04 #@! TF.FileFunction,Copper,L1,Top*
G04 #@! TF.FilePolarity,Positive*
%FSLAX46Y46*%
G04 Gerber Fmt 4.6, Leading zero omitted, Abs format (unit mm)*
G04 Created by KiCad (PCBNEW (6.0.5)) date 2022-07-08 11:37:31*
%MOMM*%
%LPD*%
G01*
G04 APERTURE LIST*
G04 #@! TA.AperFunction,ComponentPad*
%ADD10C,1.700000*%
G04 #@! TD*
G04 #@! TA.AperFunction,ComponentPad*
%ADD11O,1.700000X1.700000*%
G04 #@! TD*
G04 #@! TA.AperFunction,ViaPad*
%ADD12C,0.800000*%
G04 #@! TD*
G04 #@! TA.AperFunction,Conductor*
%ADD13C,0.200000*%
G04 #@! TD*
G04 #@! TA.AperFunction,Conductor*
%ADD14C,0.250000*%
G04 #@! TD*
G04 APERTURE END LIST*
D10*
G04 #@! TO.P,REF\u002A\u002A,1*
G04 #@! TO.N,+3V3*
X157700000Y-38000000D03*
D11*
G04 #@! TO.P,REF\u002A\u002A,2*
X157700000Y-40540000D03*
G04 #@! TO.P,REF\u002A\u002A,3*
X157700000Y-43080000D03*
G04 #@! TO.P,REF\u002A\u002A,4*
X157700000Y-45620000D03*
G04 #@! TO.P,REF\u002A\u002A,5*
X157700000Y-48160000D03*
G04 #@! TO.P,REF\u002A\u002A,6*
X157700000Y-50700000D03*
G04 #@! TO.P,REF\u002A\u002A,7*
X157700000Y-53240000D03*
G04 #@! TD*
D10*
G04 #@! TO.P,REF\u002A\u002A,1*
G04 #@! TO.N,N/C*
X135450000Y-43000000D03*
D11*
G04 #@! TO.P,REF\u002A\u002A,2*
X137990000Y-43000000D03*
G04 #@! TO.P,REF\u002A\u002A,3*
X140530000Y-43000000D03*
G04 #@! TO.P,REF\u002A\u002A,4*
X143070000Y-43000000D03*
G04 #@! TO.P,REF\u002A\u002A,5*
X145610000Y-43000000D03*
G04 #@! TO.P,REF\u002A\u002A,6*
X148150000Y-43000000D03*
G04 #@! TO.P,REF\u002A\u002A,7*
X150690000Y-43000000D03*
G04 #@! TD*
D10*
G04 #@! TO.P,REF\u002A\u002A,1*
G04 #@! TO.N,N/C*
X135475000Y-40500000D03*
D11*
G04 #@! TO.P,REF\u002A\u002A,2*
X138015000Y-40500000D03*
G04 #@! TO.P,REF\u002A\u002A,3*
X140555000Y-40500000D03*
G04 #@! TO.P,REF\u002A\u002A,4*
X143095000Y-40500000D03*
G04 #@! TO.P,REF\u002A\u002A,5*
X145635000Y-40500000D03*
G04 #@! TO.P,REF\u002A\u002A,6*
X148175000Y-40500000D03*
G04 #@! TO.P,REF\u002A\u002A,7*
X150715000Y-40500000D03*
G04 #@! TD*
D10*
G04 #@! TO.P,REF\u002A\u002A,1*
G04 #@! TO.N,N/C*
X135450000Y-53100000D03*
D11*
G04 #@! TO.P,REF\u002A\u002A,2*
X137990000Y-53100000D03*
G04 #@! TO.P,REF\u002A\u002A,3*
X140530000Y-53100000D03*
G04 #@! TO.P,REF\u002A\u002A,4*
X143070000Y-53100000D03*
G04 #@! TO.P,REF\u002A\u002A,5*
X145610000Y-53100000D03*
G04 #@! TO.P,REF\u002A\u002A,6*
X148150000Y-53100000D03*
G04 #@! TO.P,REF\u002A\u002A,7*
X150690000Y-53100000D03*
G04 #@! TD*
D10*
G04 #@! TO.P,REF\u002A\u002A,1*
G04 #@! TO.N,GND*
X155100000Y-38000000D03*
D11*
G04 #@! TO.P,REF\u002A\u002A,2*
X155100000Y-40540000D03*
G04 #@! TO.P,REF\u002A\u002A,3*
X155100000Y-43080000D03*
G04 #@! TO.P,REF\u002A\u002A,4*
X155100000Y-45620000D03*
G04 #@! TO.P,REF\u002A\u002A,5*
X155100000Y-48160000D03*
G04 #@! TO.P,REF\u002A\u002A,6*
X155100000Y-50700000D03*
G04 #@! TO.P,REF\u002A\u002A,7*
X155100000Y-53240000D03*
G04 #@! TD*
D10*
G04 #@! TO.P,REF\u002A\u002A,1*
G04 #@! TO.N,ADC1.1*
X128700000Y-35350000D03*
D11*
G04 #@! TO.P,REF\u002A\u002A,2*
G04 #@! TO.N,ADC1.2*
X128700000Y-37890000D03*
G04 #@! TO.P,REF\u002A\u002A,3*
G04 #@! TO.N,ADC1.3*
X128700000Y-40430000D03*
G04 #@! TO.P,REF\u002A\u002A,4*
G04 #@! TO.N,ADC1.4T*
X128700000Y-42970000D03*
G04 #@! TO.P,REF\u002A\u002A,5*
G04 #@! TO.N,ADC1.5T*
X128700000Y-45510000D03*
G04 #@! TO.P,REF\u002A\u002A,6*
G04 #@! TO.N,ADC1.6*
X128700000Y-48050000D03*
G04 #@! TO.P,REF\u002A\u002A,7*
G04 #@! TO.N,ADC1.7*
X128700000Y-50590000D03*
G04 #@! TO.P,REF\u002A\u002A,8*
G04 #@! TO.N,GPIO2*
X128700000Y-53130000D03*
G04 #@! TO.P,REF\u002A\u002A,9*
G04 #@! TO.N,+5V*
X128700000Y-55670000D03*
G04 #@! TD*
D10*
G04 #@! TO.P,REF\u002A\u002A,1*
G04 #@! TO.N,N/C*
X135450000Y-45500000D03*
D11*
G04 #@! TO.P,REF\u002A\u002A,2*
X137990000Y-45500000D03*
G04 #@! TO.P,REF\u002A\u002A,3*
X140530000Y-45500000D03*
G04 #@! TO.P,REF\u002A\u002A,4*
X143070000Y-45500000D03*
G04 #@! TO.P,REF\u002A\u002A,5*
X145610000Y-45500000D03*
G04 #@! TO.P,REF\u002A\u002A,6*
X148150000Y-45500000D03*
G04 #@! TO.P,REF\u002A\u002A,7*
X150690000Y-45500000D03*
G04 #@! TD*
D10*
G04 #@! TO.P,REF\u002A\u002A,1*
G04 #@! TO.N,N/C*
X135450000Y-50600000D03*
D11*
G04 #@! TO.P,REF\u002A\u002A,2*
X137990000Y-50600000D03*
G04 #@! TO.P,REF\u002A\u002A,3*
X140530000Y-50600000D03*
G04 #@! TO.P,REF\u002A\u002A,4*
X143070000Y-50600000D03*
G04 #@! TO.P,REF\u002A\u002A,5*
X145610000Y-50600000D03*
G04 #@! TO.P,REF\u002A\u002A,6*
X148150000Y-50600000D03*
G04 #@! TO.P,REF\u002A\u002A,7*
X150690000Y-50600000D03*
G04 #@! TD*
D10*
G04 #@! TO.P,REF\u002A\u002A,1*
G04 #@! TO.N,N/C*
X135450000Y-48000000D03*
D11*
G04 #@! TO.P,REF\u002A\u002A,2*
X137990000Y-48000000D03*
G04 #@! TO.P,REF\u002A\u002A,3*
X140530000Y-48000000D03*
G04 #@! TO.P,REF\u002A\u002A,4*
X143070000Y-48000000D03*
G04 #@! TO.P,REF\u002A\u002A,5*
X145610000Y-48000000D03*
G04 #@! TO.P,REF\u002A\u002A,6*
X148150000Y-48000000D03*
G04 #@! TO.P,REF\u002A\u002A,7*
X150690000Y-48000000D03*
G04 #@! TD*
D10*
G04 #@! TO.P,REF\u002A\u002A,1*
G04 #@! TO.N,PB*
X132900000Y-31300000D03*
D11*
G04 #@! TO.P,REF\u002A\u002A,2*
G04 #@! TO.N,RESET*
X135440000Y-31300000D03*
G04 #@! TO.P,REF\u002A\u002A,3*
G04 #@! TO.N,RXD*
X137980000Y-31300000D03*
G04 #@! TO.P,REF\u002A\u002A,4*
G04 #@! TO.N,TXD*
X140520000Y-31300000D03*
G04 #@! TO.P,REF\u002A\u002A,5*
G04 #@! TO.N,SCL*
X143060000Y-31300000D03*
G04 #@! TO.P,REF\u002A\u002A,6*
G04 #@! TO.N,SDA*
X145600000Y-31300000D03*
G04 #@! TO.P,REF\u002A\u002A,7*
G04 #@! TO.N,SCK*
X148140000Y-31300000D03*
G04 #@! TO.P,REF\u002A\u002A,8*
G04 #@! TO.N,MOSI*
X150680000Y-31300000D03*
G04 #@! TO.P,REF\u002A\u002A,9*
G04 #@! TO.N,MISO*
X153220000Y-31300000D03*
G04 #@! TD*
D10*
G04 #@! TO.P,REF\u002A\u002A,1*
G04 #@! TO.N,N/C*
X135475000Y-38000000D03*
D11*
G04 #@! TO.P,REF\u002A\u002A,2*
X138015000Y-38000000D03*
G04 #@! TO.P,REF\u002A\u002A,3*
X140555000Y-38000000D03*
G04 #@! TO.P,REF\u002A\u002A,4*
X143095000Y-38000000D03*
G04 #@! TO.P,REF\u002A\u002A,5*
X145635000Y-38000000D03*
G04 #@! TO.P,REF\u002A\u002A,6*
X148175000Y-38000000D03*
G04 #@! TO.P,REF\u002A\u002A,7*
X150715000Y-38000000D03*
G04 #@! TD*
D12*
G04 #@! TO.N,SCL*
X145500000Y-61800000D03*
G04 #@! TO.N,SDA*
X147413183Y-59000644D03*
G04 #@! TO.N,MISO*
X144000000Y-61800000D03*
G04 #@! TO.N,SCK*
X141950000Y-61800000D03*
G04 #@! TO.N,TXD*
X143750000Y-58250000D03*
X151150000Y-56250000D03*
G04 #@! TO.N,ADC1.5T*
X142421466Y-55140363D03*
G04 #@! TO.N,RXD*
X142450000Y-58550000D03*
X149250000Y-55850000D03*
G04 #@! TO.N,ADC1.4T*
X141050000Y-54750000D03*
G04 #@! TO.N,ADC1.7*
X140400000Y-58700000D03*
G04 #@! TO.N,RESET*
X148182981Y-55892420D03*
X141500000Y-59000000D03*
G04 #@! TO.N,ADC1.6*
X137600000Y-56050000D03*
G04 #@! TO.N,ADC1.3*
X137999502Y-59074020D03*
G04 #@! TO.N,GPIO2*
X146799022Y-55250000D03*
X146799022Y-55250000D03*
G04 #@! TD*
D13*
G04 #@! TO.N,*
X135475000Y-40500000D02*
X143095000Y-40500000D01*
X145610000Y-48000000D02*
X150690000Y-48000000D01*
X135450000Y-48000000D02*
X143070000Y-48000000D01*
X145610000Y-50600000D02*
X150690000Y-50600000D01*
X145635000Y-38000000D02*
X150715000Y-38000000D01*
X135475000Y-38000000D02*
X143095000Y-38000000D01*
X145635000Y-40500000D02*
X150715000Y-40500000D01*
X135450000Y-43000000D02*
X143070000Y-43000000D01*
X135450000Y-50600000D02*
X143070000Y-50600000D01*
X145610000Y-45500000D02*
X150690000Y-45500000D01*
X145610000Y-53100000D02*
X150690000Y-53100000D01*
X135450000Y-45500000D02*
X143070000Y-45500000D01*
X135450000Y-53100000D02*
X143070000Y-53100000D01*
X145610000Y-43000000D02*
X150690000Y-43000000D01*
D14*
G04 #@! TO.N,SCL*
X155400000Y-33100000D02*
X155400000Y-30600000D01*
X155400000Y-30600000D02*
X154500000Y-29700000D01*
X145500000Y-61800000D02*
X155050000Y-61800000D01*
X155050000Y-61800000D02*
X155600000Y-61250000D01*
X143060000Y-30290000D02*
X143060000Y-31300000D01*
X154500000Y-29700000D02*
X143650000Y-29700000D01*
X156400000Y-34100000D02*
X155400000Y-33100000D01*
X156400000Y-57300000D02*
X156400000Y-34100000D01*
X155600000Y-58100000D02*
X156400000Y-57300000D01*
X143650000Y-29700000D02*
X143060000Y-30290000D01*
X155600000Y-61250000D02*
X155600000Y-58100000D01*
G04 #@! TO.N,SDA*
X146600000Y-34100000D02*
X145600000Y-33100000D01*
X151950000Y-58700000D02*
X152350000Y-58300000D01*
X147713827Y-58700000D02*
X151950000Y-58700000D01*
X145600000Y-33100000D02*
X145600000Y-31300000D01*
X152350000Y-58300000D02*
X152350000Y-34300000D01*
X147413183Y-59000644D02*
X147713827Y-58700000D01*
X152150000Y-34100000D02*
X146600000Y-34100000D01*
X152350000Y-34300000D02*
X152150000Y-34100000D01*
G04 #@! TO.N,MISO*
X153400000Y-32700000D02*
X153220000Y-32520000D01*
X153400000Y-60150000D02*
X153400000Y-32700000D01*
X152474511Y-61075489D02*
X153400000Y-60150000D01*
X144000000Y-61800000D02*
X144724511Y-61075489D01*
X144724511Y-61075489D02*
X152474511Y-61075489D01*
X153220000Y-32520000D02*
X153220000Y-31300000D01*
G04 #@! TO.N,SCK*
X148140000Y-32890000D02*
X148140000Y-31300000D01*
X148020603Y-59425479D02*
X152374521Y-59425479D01*
X152035718Y-33350000D02*
X148600000Y-33350000D01*
D13*
X148140000Y-32890000D02*
X148200000Y-32950000D01*
D14*
X148600000Y-33350000D02*
X148140000Y-32890000D01*
X141950000Y-61800000D02*
X143124031Y-60625969D01*
X152900000Y-34214282D02*
X152035718Y-33350000D01*
X152900000Y-58900000D02*
X152900000Y-34214282D01*
X152374521Y-59425479D02*
X152900000Y-58900000D01*
X146820113Y-60625969D02*
X148020603Y-59425479D01*
X143124031Y-60625969D02*
X146820113Y-60625969D01*
G04 #@! TO.N,TXD*
X143750000Y-58250000D02*
X149150000Y-58250000D01*
X149150000Y-58250000D02*
X151150000Y-56250000D01*
G04 #@! TO.N,ADC1.5T*
X142037318Y-55524511D02*
X142421466Y-55140363D01*
X131175489Y-53525489D02*
X132850000Y-55200000D01*
X138724511Y-55524511D02*
X142037318Y-55524511D01*
X131175489Y-48325489D02*
X131175489Y-53525489D01*
X128700000Y-45510000D02*
X131175489Y-47985489D01*
X131175489Y-47985489D02*
X131175489Y-48325489D01*
X132850000Y-55200000D02*
X138400000Y-55200000D01*
X138400000Y-55200000D02*
X138724511Y-55524511D01*
G04 #@! TO.N,RXD*
X142850000Y-58150000D02*
X142850000Y-57750000D01*
X142450000Y-58550000D02*
X142850000Y-58150000D01*
X143074511Y-57525489D02*
X147574511Y-57525489D01*
X147574511Y-57525489D02*
X149250000Y-55850000D01*
X142850000Y-57750000D02*
X143074511Y-57525489D01*
G04 #@! TO.N,ADC1.4T*
X131900000Y-46170000D02*
X128700000Y-42970000D01*
X141050000Y-54750000D02*
X140700000Y-54400000D01*
X135088990Y-54400000D02*
X131900000Y-51211010D01*
X140700000Y-54400000D02*
X135088990Y-54400000D01*
X131900000Y-51211010D02*
X131900000Y-46170000D01*
G04 #@! TO.N,ADC1.7*
X127350000Y-51940000D02*
X128700000Y-50590000D01*
X129885237Y-58349520D02*
X129486197Y-57950480D01*
X127836198Y-57950480D02*
X127350000Y-57464282D01*
X140049520Y-58349520D02*
X129885237Y-58349520D01*
X127350000Y-57464282D02*
X127350000Y-51940000D01*
X140400000Y-58700000D02*
X140049520Y-58349520D01*
X129486197Y-57950480D02*
X127836198Y-57950480D01*
G04 #@! TO.N,RESET*
X142888314Y-57075969D02*
X141987693Y-57976589D01*
X141987693Y-57987693D02*
X141500000Y-58475386D01*
X141500000Y-58475386D02*
X141500000Y-59000000D01*
X141987693Y-57976589D02*
X141987693Y-57987693D01*
X146999432Y-57075969D02*
X142888314Y-57075969D01*
X148182981Y-55892420D02*
X146999432Y-57075969D01*
G04 #@! TO.N,ADC1.6*
X130150000Y-49500000D02*
X128700000Y-48050000D01*
X132300000Y-56050000D02*
X137600000Y-56050000D01*
X130150000Y-53900000D02*
X132300000Y-56050000D01*
X130150000Y-49500000D02*
X130150000Y-53900000D01*
G04 #@! TO.N,ADC1.3*
X127650000Y-58400000D02*
X126850000Y-57600000D01*
X126850000Y-57600000D02*
X126850000Y-42280000D01*
X129950000Y-59050000D02*
X129300000Y-58400000D01*
X126850000Y-42280000D02*
X128700000Y-40430000D01*
X137999502Y-59074020D02*
X137975482Y-59050000D01*
X129300000Y-58400000D02*
X127650000Y-58400000D01*
X137975482Y-59050000D02*
X129950000Y-59050000D01*
G04 #@! TO.N,GPIO2*
X145973551Y-56626449D02*
X146799022Y-55800978D01*
X141400000Y-57900000D02*
X142673551Y-56626449D01*
X133470000Y-57900000D02*
X141400000Y-57900000D01*
X146799022Y-55800978D02*
X146799022Y-55250000D01*
X142673551Y-56626449D02*
X145973551Y-56626449D01*
X128700000Y-53130000D02*
X133470000Y-57900000D01*
G04 #@! TD*
M02*
